solid a(mid)
facet normal -0.0 -1.0 -0.0
  outer loop
    vertex 40.0 0.9999999999999999 7.499999999999999
    vertex 0.0 0.9999999999999999 0.9999999999999999
    vertex 40.0 0.9999999999999999 0.9999999999999999
  endloop
endfacet
facet normal -0.0 -1.0 -0.0
  outer loop
    vertex 0.0 0.9999999999999999 0.9999999999999999
    vertex 40.0 0.9999999999999999 7.499999999999999
    vertex 0.0 0.9999999999999999 7.499999999999999
  endloop
endfacet
facet normal -1.0 0.0 0.0
  outer loop
    vertex 0.0 0.9999999999999999 7.499999999999999
    vertex 0.0 2.8 6.499999999999999
    vertex 0.0 0.9999999999999999 0.9999999999999999
  endloop
endfacet
facet normal -1.0 0.0 0.0
  outer loop
    vertex 0.0 2.8 6.499999999999999
    vertex 0.0 0.9999999999999999 7.499999999999999
    vertex 0.0 3.5 7.499999999999999
  endloop
endfacet
facet normal -1.0 0.0 0.0
  outer loop
    vertex 0.0 2.8 6.499999999999999
    vertex 0.0 3.5 7.499999999999999
    vertex 0.0 3.5 6.499999999999999
  endloop
endfacet
facet normal -1.0 0.0 0.0
  outer loop
    vertex 0.0 12.0 7.499999999999999
    vertex 0.0 7.499999999999999 6.499999999999999
    vertex 0.0 7.499999999999999 7.499999999999999
  endloop
endfacet
facet normal -1.0 0.0 0.0
  outer loop
    vertex 0.0 7.499999999999999 6.499999999999999
    vertex 0.0 12.0 7.499999999999999
    vertex 0.0 8.2 6.499999999999999
  endloop
endfacet
facet normal -1.0 0.0 0.0
  outer loop
    vertex 0.0 8.2 6.499999999999999
    vertex 0.0 12.0 7.499999999999999
    vertex 0.0 8.2 4.799999999999999
  endloop
endfacet
facet normal -1.0 0.0 0.0
  outer loop
    vertex 0.0 0.9999999999999999 0.9999999999999999
    vertex 0.0 2.8 4.799999999999999
    vertex 0.0 12.0 0.9999999999999998
  endloop
endfacet
facet normal -1.0 0.0 0.0
  outer loop
    vertex 0.0 2.8 4.799999999999999
    vertex 0.0 0.9999999999999999 0.9999999999999999
    vertex 0.0 2.8 6.499999999999999
  endloop
endfacet
facet normal -1.0 0.0 0.0
  outer loop
    vertex 0.0 12.0 0.9999999999999998
    vertex 0.0 2.8 4.799999999999999
    vertex 0.0 8.2 4.799999999999999
  endloop
endfacet
facet normal -1.0 0.0 0.0
  outer loop
    vertex 0.0 12.0 0.9999999999999998
    vertex 0.0 8.2 4.799999999999999
    vertex 0.0 12.0 7.499999999999999
  endloop
endfacet
facet normal 0.0 0.0 1.0
  outer loop
    vertex 40.0 2.8 4.799999999999999
    vertex 0.0 8.2 4.799999999999999
    vertex 0.0 2.8 4.799999999999999
  endloop
endfacet
facet normal 0.0 0.0 1.0
  outer loop
    vertex 0.0 8.2 4.799999999999999
    vertex 40.0 2.8 4.799999999999999
    vertex 40.0 8.2 4.799999999999999
  endloop
endfacet
facet normal 0.0 0.0 1.0
  outer loop
    vertex 40.0 0.9999999999999999 7.499999999999999
    vertex 0.0 3.5 7.499999999999999
    vertex 0.0 0.9999999999999999 7.499999999999999
  endloop
endfacet
facet normal 0.0 0.0 1.0
  outer loop
    vertex 0.0 3.5 7.499999999999999
    vertex 40.0 0.9999999999999999 7.499999999999999
    vertex 40.0 3.5 7.499999999999999
  endloop
endfacet
facet normal 0.0 1.0 0.0
  outer loop
    vertex 0.0 2.8 6.499999999999999
    vertex 40.0 2.8 4.799999999999999
    vertex 0.0 2.8 4.799999999999999
  endloop
endfacet
facet normal 0.0 1.0 0.0
  outer loop
    vertex 40.0 2.8 4.799999999999999
    vertex 0.0 2.8 6.499999999999999
    vertex 40.0 2.8 6.499999999999999
  endloop
endfacet
facet normal 0.0 -1.0 0.0
  outer loop
    vertex 40.0 8.2 6.499999999999999
    vertex 0.0 8.2 4.799999999999999
    vertex 40.0 8.2 4.799999999999999
  endloop
endfacet
facet normal 0.0 -1.0 0.0
  outer loop
    vertex 0.0 8.2 4.799999999999999
    vertex 40.0 8.2 6.499999999999999
    vertex 0.0 8.2 6.499999999999999
  endloop
endfacet
facet normal 0.0 -1.0 0.0
  outer loop
    vertex 40.0 7.499999999999999 7.499999999999999
    vertex 0.0 7.499999999999999 6.499999999999999
    vertex 40.0 7.499999999999999 6.499999999999999
  endloop
endfacet
facet normal 0.0 -1.0 0.0
  outer loop
    vertex 0.0 7.499999999999999 6.499999999999999
    vertex 40.0 7.499999999999999 7.499999999999999
    vertex 0.0 7.499999999999999 7.499999999999999
  endloop
endfacet
facet normal 0.0 0.0 -1.0
  outer loop
    vertex 40.0 8.2 6.499999999999999
    vertex 0.0 7.499999999999999 6.499999999999999
    vertex 0.0 8.2 6.499999999999999
  endloop
endfacet
facet normal 0.0 0.0 -1.0
  outer loop
    vertex 0.0 7.499999999999999 6.499999999999999
    vertex 40.0 8.2 6.499999999999999
    vertex 40.0 7.499999999999999 6.499999999999999
  endloop
endfacet
facet normal 0.0 1.0 0.0
  outer loop
    vertex 0.0 3.5 7.499999999999999
    vertex 40.0 3.5 6.499999999999999
    vertex 0.0 3.5 6.499999999999999
  endloop
endfacet
facet normal 0.0 1.0 0.0
  outer loop
    vertex 40.0 3.5 6.499999999999999
    vertex 0.0 3.5 7.499999999999999
    vertex 40.0 3.5 7.499999999999999
  endloop
endfacet
facet normal -0.0 -0.0 -1.0
  outer loop
    vertex 40.0 3.5 6.499999999999999
    vertex 0.0 2.8 6.499999999999999
    vertex 0.0 3.5 6.499999999999999
  endloop
endfacet
facet normal -0.0 -0.0 -1.0
  outer loop
    vertex 0.0 2.8 6.499999999999999
    vertex 40.0 3.5 6.499999999999999
    vertex 40.0 2.8 6.499999999999999
  endloop
endfacet
facet normal 0.0 -1.0 0.0
  outer loop
    vertex 40.0 17.0 12.0
    vertex 0.0 17.0 7.499999999999999
    vertex 40.0 17.0 7.499999999999999
  endloop
endfacet
facet normal 0.0 -1.0 0.0
  outer loop
    vertex 0.0 17.0 7.499999999999999
    vertex 40.0 17.0 12.0
    vertex 0.0 17.0 12.0
  endloop
endfacet
facet normal 0.0 0.0 1.0
  outer loop
    vertex 40.0 7.499999999999999 7.499999999999999
    vertex 0.0 12.0 7.499999999999999
    vertex 0.0 7.499999999999999 7.499999999999999
  endloop
endfacet
facet normal 0.0 0.0 1.0
  outer loop
    vertex 0.0 12.0 7.499999999999999
    vertex 40.0 7.499999999999999 7.499999999999999
    vertex 0.0 17.0 7.499999999999999
  endloop
endfacet
facet normal 0.0 0.0 1.0
  outer loop
    vertex 0.0 17.0 7.499999999999999
    vertex 40.0 7.499999999999999 7.499999999999999
    vertex 40.0 17.0 7.499999999999999
  endloop
endfacet
facet normal -6.843413211224047e-19 -1.3135199942643377e-17 -1.0
  outer loop
    vertex 40.0 29.000000000000014 0.9999999999999996
    vertex 0.0 12.0 0.9999999999999998
    vertex 0.0 29.000000000000014 0.9999999999999996
  endloop
endfacet
facet normal -6.843413211224047e-19 -1.3135199942643377e-17 -1.0
  outer loop
    vertex 0.0 12.0 0.9999999999999998
    vertex 40.0 29.000000000000014 0.9999999999999996
    vertex 0.0 0.9999999999999999 0.9999999999999999
  endloop
endfacet
facet normal -6.843413211224047e-19 -1.3135199942643377e-17 -1.0
  outer loop
    vertex 0.0 0.9999999999999999 0.9999999999999999
    vertex 40.0 29.000000000000014 0.9999999999999996
    vertex 40.0 0.9999999999999999 0.9999999999999999
  endloop
endfacet
facet normal 2.2089474896371004e-31 -2.2890713283437142e-48 1.0
  outer loop
    vertex 9.551111260566397 22.61177143234622 8.999999999999998
    vertex 9.551111260566397 23.388228567653783 8.999999999999998
    vertex 9.5 23.000000000000004 8.999999999999998
  endloop
endfacet
facet normal 2.2089474896371004e-31 -2.2890713283437142e-48 1.0
  outer loop
    vertex 9.551111260566397 23.388228567653783 8.999999999999998
    vertex 9.551111260566397 22.61177143234622 8.999999999999998
    vertex 9.700961894323342 22.25 8.999999999999998
  endloop
endfacet
facet normal 2.2089474896371004e-31 -2.2890713283437142e-48 1.0
  outer loop
    vertex 9.551111260566397 23.388228567653783 8.999999999999998
    vertex 9.700961894323342 22.25 8.999999999999998
    vertex 9.700961894323342 23.75 8.999999999999998
  endloop
endfacet
facet normal 2.2089474896371004e-31 -2.2890713283437142e-48 1.0
  outer loop
    vertex 9.700961894323342 23.75 8.999999999999998
    vertex 9.700961894323342 22.25 8.999999999999998
    vertex 9.939339828220179 21.93933982822018 8.999999999999998
  endloop
endfacet
facet normal 2.2089474896371004e-31 -2.2890713283437142e-48 1.0
  outer loop
    vertex 9.700961894323342 23.75 8.999999999999998
    vertex 9.939339828220179 21.93933982822018 8.999999999999998
    vertex 9.939339828220179 24.060660171779823 8.999999999999998
  endloop
endfacet
facet normal 2.2089474896371004e-31 -2.2890713283437142e-48 1.0
  outer loop
    vertex 9.939339828220179 24.060660171779823 8.999999999999998
    vertex 9.939339828220179 21.93933982822018 8.999999999999998
    vertex 10.250000000000002 21.700961894323346 8.999999999999998
  endloop
endfacet
facet normal 2.2089474896371004e-31 -2.2890713283437142e-48 1.0
  outer loop
    vertex 9.939339828220179 24.060660171779823 8.999999999999998
    vertex 10.250000000000002 21.700961894323346 8.999999999999998
    vertex 10.25 24.29903810567666 8.999999999999998
  endloop
endfacet
facet normal 2.2089474896371004e-31 -2.2890713283437142e-48 1.0
  outer loop
    vertex 10.25 24.29903810567666 8.999999999999998
    vertex 10.250000000000002 21.700961894323346 8.999999999999998
    vertex 10.611771432346218 24.448888739433606 8.999999999999998
  endloop
endfacet
facet normal 2.2089474896371004e-31 -2.2890713283437142e-48 1.0
  outer loop
    vertex 10.611771432346218 24.448888739433606 8.999999999999998
    vertex 10.250000000000002 21.700961894323346 8.999999999999998
    vertex 10.61177143234622 21.5511112605664 8.999999999999998
  endloop
endfacet
facet normal 2.2089474896371004e-31 -2.2890713283437142e-48 1.0
  outer loop
    vertex 10.611771432346218 24.448888739433606 8.999999999999998
    vertex 10.61177143234622 21.5511112605664 8.999999999999998
    vertex 11.0 24.500000000000004 8.999999999999998
  endloop
endfacet
facet normal 2.2089474896371004e-31 -2.2890713283437142e-48 1.0
  outer loop
    vertex 11.0 24.500000000000004 8.999999999999998
    vertex 10.61177143234622 21.5511112605664 8.999999999999998
    vertex 11.0 21.500000000000004 8.999999999999998
  endloop
endfacet
facet normal 2.2089474896371004e-31 -2.2890713283437142e-48 1.0
  outer loop
    vertex 11.0 24.500000000000004 8.999999999999998
    vertex 11.0 21.500000000000004 8.999999999999998
    vertex 11.388228567653782 21.5511112605664 8.999999999999998
  endloop
endfacet
facet normal 2.2089474896371004e-31 -2.2890713283437142e-48 1.0
  outer loop
    vertex 11.0 24.500000000000004 8.999999999999998
    vertex 11.388228567653782 21.5511112605664 8.999999999999998
    vertex 11.388228567653782 24.448888739433606 8.999999999999998
  endloop
endfacet
facet normal 2.2089474896371004e-31 -2.2890713283437142e-48 1.0
  outer loop
    vertex 11.388228567653782 24.448888739433606 8.999999999999998
    vertex 11.388228567653782 21.5511112605664 8.999999999999998
    vertex 11.75 24.29903810567666 8.999999999999998
  endloop
endfacet
facet normal 2.2089474896371004e-31 -2.2890713283437142e-48 1.0
  outer loop
    vertex 11.75 24.29903810567666 8.999999999999998
    vertex 11.388228567653782 21.5511112605664 8.999999999999998
    vertex 11.75 21.700961894323346 8.999999999999998
  endloop
endfacet
facet normal 2.2089474896371004e-31 -2.2890713283437142e-48 1.0
  outer loop
    vertex 11.75 24.29903810567666 8.999999999999998
    vertex 11.75 21.700961894323346 8.999999999999998
    vertex 12.060660171779821 21.93933982822018 8.999999999999998
  endloop
endfacet
facet normal 2.2089474896371004e-31 -2.2890713283437142e-48 1.0
  outer loop
    vertex 11.75 24.29903810567666 8.999999999999998
    vertex 12.060660171779821 21.93933982822018 8.999999999999998
    vertex 12.060660171779821 24.060660171779823 8.999999999999998
  endloop
endfacet
facet normal 2.2089474896371004e-31 -2.2890713283437142e-48 1.0
  outer loop
    vertex 12.060660171779821 24.060660171779823 8.999999999999998
    vertex 12.060660171779821 21.93933982822018 8.999999999999998
    vertex 12.299038105676658 22.250000000000004 8.999999999999998
  endloop
endfacet
facet normal 2.2089474896371004e-31 -2.2890713283437142e-48 1.0
  outer loop
    vertex 12.060660171779821 24.060660171779823 8.999999999999998
    vertex 12.299038105676658 22.250000000000004 8.999999999999998
    vertex 12.299038105676656 23.750000000000004 8.999999999999998
  endloop
endfacet
facet normal 2.2089474896371004e-31 -2.2890713283437142e-48 1.0
  outer loop
    vertex 12.299038105676656 23.750000000000004 8.999999999999998
    vertex 12.299038105676658 22.250000000000004 8.999999999999998
    vertex 12.448888739433603 23.388228567653783 8.999999999999998
  endloop
endfacet
facet normal 2.2089474896371004e-31 -2.2890713283437142e-48 1.0
  outer loop
    vertex 12.448888739433603 23.388228567653783 8.999999999999998
    vertex 12.299038105676658 22.250000000000004 8.999999999999998
    vertex 12.448888739433603 22.61177143234622 8.999999999999998
  endloop
endfacet
facet normal 2.2089474896371004e-31 -2.2890713283437142e-48 1.0
  outer loop
    vertex 12.448888739433603 23.388228567653783 8.999999999999998
    vertex 12.448888739433603 22.61177143234622 8.999999999999998
    vertex 12.5 23.000000000000004 8.999999999999998
  endloop
endfacet
facet normal 1.415645824572238e-17 8.392757388535452e-18 1.0
  outer loop
    vertex 40.0 17.0 12.0
    vertex 0.0 29.000000000000014 12.0
    vertex 0.0 17.0 12.0
  endloop
endfacet
facet normal 1.415645824572238e-17 8.392757388535452e-18 1.0
  outer loop
    vertex 0.0 29.000000000000014 12.0
    vertex 40.0 17.0 12.0
    vertex 10.250000000000002 30.70096189432335 12.0
  endloop
endfacet
facet normal 1.415645824572238e-17 8.392757388535452e-18 1.0
  outer loop
    vertex 0.0 29.000000000000014 12.0
    vertex 10.250000000000002 30.70096189432335 12.0
    vertex 9.939339828220179 30.93933982822018 12.0
  endloop
endfacet
facet normal 1.415645824572238e-17 8.392757388535452e-18 1.0
  outer loop
    vertex 0.0 29.000000000000014 12.0
    vertex 9.939339828220179 30.93933982822018 12.0
    vertex 6.0 35.0 12.0
  endloop
endfacet
facet normal 1.415645824572238e-17 8.392757388535452e-18 1.0
  outer loop
    vertex 6.0 35.0 12.0
    vertex 9.939339828220179 30.93933982822018 12.0
    vertex 9.700961894323342 31.250000000000004 12.0
  endloop
endfacet
facet normal 1.415645824572238e-17 8.392757388535452e-18 1.0
  outer loop
    vertex 6.0 35.0 12.0
    vertex 9.700961894323342 31.250000000000004 12.0
    vertex 9.551111260566397 31.61177143234622 12.0
  endloop
endfacet
facet normal 1.415645824572238e-17 8.392757388535452e-18 1.0
  outer loop
    vertex 6.0 35.0 12.0
    vertex 9.551111260566397 31.61177143234622 12.0
    vertex 9.5 32.0 12.0
  endloop
endfacet
facet normal 1.415645824572238e-17 8.392757388535452e-18 1.0
  outer loop
    vertex 10.250000000000002 30.70096189432335 12.0
    vertex 40.0 17.0 12.0
    vertex 10.61177143234622 30.5511112605664 12.0
  endloop
endfacet
facet normal 1.415645824572238e-17 8.392757388535452e-18 1.0
  outer loop
    vertex 10.61177143234622 30.5511112605664 12.0
    vertex 40.0 17.0 12.0
    vertex 11.0 30.5 12.0
  endloop
endfacet
facet normal 1.415645824572238e-17 8.392757388535452e-18 1.0
  outer loop
    vertex 11.0 30.5 12.0
    vertex 40.0 17.0 12.0
    vertex 11.388228567653782 30.5511112605664 12.0
  endloop
endfacet
facet normal 1.415645824572238e-17 8.392757388535452e-18 1.0
  outer loop
    vertex 11.388228567653782 30.5511112605664 12.0
    vertex 40.0 17.0 12.0
    vertex 11.75 30.70096189432335 12.0
  endloop
endfacet
facet normal 1.415645824572238e-17 8.392757388535452e-18 1.0
  outer loop
    vertex 11.75 30.70096189432335 12.0
    vertex 40.0 17.0 12.0
    vertex 12.060660171779821 30.939339828220184 12.0
  endloop
endfacet
facet normal 1.415645824572238e-17 8.392757388535452e-18 1.0
  outer loop
    vertex 12.060660171779821 30.939339828220184 12.0
    vertex 40.0 17.0 12.0
    vertex 12.299038105676658 31.250000000000004 12.0
  endloop
endfacet
facet normal 1.415645824572238e-17 8.392757388535452e-18 1.0
  outer loop
    vertex 12.299038105676658 31.250000000000004 12.0
    vertex 40.0 17.0 12.0
    vertex 12.448888739433603 31.611771432346224 12.0
  endloop
endfacet
facet normal 1.415645824572238e-17 8.392757388535452e-18 1.0
  outer loop
    vertex 12.448888739433603 31.611771432346224 12.0
    vertex 40.0 17.0 12.0
    vertex 12.5 32.0 12.0
  endloop
endfacet
facet normal 1.415645824572238e-17 8.392757388535452e-18 1.0
  outer loop
    vertex 12.5 32.0 12.0
    vertex 40.0 17.0 12.0
    vertex 27.939339828220184 30.939339828220184 12.0
  endloop
endfacet
facet normal 1.415645824572238e-17 8.392757388535452e-18 1.0
  outer loop
    vertex 12.5 32.0 12.0
    vertex 27.939339828220184 30.939339828220184 12.0
    vertex 27.70096189432335 31.250000000000004 12.0
  endloop
endfacet
facet normal 1.415645824572238e-17 8.392757388535452e-18 1.0
  outer loop
    vertex 12.5 32.0 12.0
    vertex 27.70096189432335 31.250000000000004 12.0
    vertex 27.551111260566408 31.61177143234622 12.0
  endloop
endfacet
facet normal 1.415645824572238e-17 8.392757388535452e-18 1.0
  outer loop
    vertex 12.5 32.0 12.0
    vertex 27.551111260566408 31.61177143234622 12.0
    vertex 27.500000000000007 32.0 12.0
  endloop
endfacet
facet normal 1.415645824572238e-17 8.392757388535452e-18 1.0
  outer loop
    vertex 27.939339828220184 30.939339828220184 12.0
    vertex 40.0 17.0 12.0
    vertex 28.250000000000004 30.70096189432335 12.0
  endloop
endfacet
facet normal 1.415645824572238e-17 8.392757388535452e-18 1.0
  outer loop
    vertex 28.250000000000004 30.70096189432335 12.0
    vertex 40.0 17.0 12.0
    vertex 28.611771432346224 30.5511112605664 12.0
  endloop
endfacet
facet normal 1.415645824572238e-17 8.392757388535452e-18 1.0
  outer loop
    vertex 28.611771432346224 30.5511112605664 12.0
    vertex 40.0 17.0 12.0
    vertex 29.000000000000004 30.500000000000007 12.0
  endloop
endfacet
facet normal 1.415645824572238e-17 8.392757388535452e-18 1.0
  outer loop
    vertex 29.000000000000004 30.500000000000007 12.0
    vertex 40.0 17.0 12.0
    vertex 29.388228567653787 30.551111260566408 12.0
  endloop
endfacet
facet normal 1.415645824572238e-17 8.392757388535452e-18 1.0
  outer loop
    vertex 29.388228567653787 30.551111260566408 12.0
    vertex 40.0 17.0 12.0
    vertex 29.750000000000004 30.70096189432335 12.0
  endloop
endfacet
facet normal 1.415645824572238e-17 8.392757388535452e-18 1.0
  outer loop
    vertex 29.750000000000004 30.70096189432335 12.0
    vertex 40.0 17.0 12.0
    vertex 30.060660171779823 30.939339828220184 12.0
  endloop
endfacet
facet normal 1.415645824572238e-17 8.392757388535452e-18 1.0
  outer loop
    vertex 30.060660171779823 30.939339828220184 12.0
    vertex 40.0 17.0 12.0
    vertex 30.299038105676658 31.250000000000004 12.0
  endloop
endfacet
facet normal 1.415645824572238e-17 8.392757388535452e-18 1.0
  outer loop
    vertex 30.299038105676658 31.250000000000004 12.0
    vertex 40.0 17.0 12.0
    vertex 30.448888739433606 31.611771432346224 12.0
  endloop
endfacet
facet normal 1.415645824572238e-17 8.392757388535452e-18 1.0
  outer loop
    vertex 30.448888739433606 31.611771432346224 12.0
    vertex 40.0 17.0 12.0
    vertex 30.5 32.0 12.0
  endloop
endfacet
facet normal 1.415645824572238e-17 8.392757388535452e-18 1.0
  outer loop
    vertex 30.5 32.0 12.0
    vertex 40.0 17.0 12.0
    vertex 33.99999999999999 35.0 12.0
  endloop
endfacet
facet normal 1.415645824572238e-17 8.392757388535452e-18 1.0
  outer loop
    vertex 33.99999999999999 35.0 12.0
    vertex 40.0 17.0 12.0
    vertex 40.0 29.000000000000014 11.999999999999998
  endloop
endfacet
facet normal 1.415645824572238e-17 8.392757388535452e-18 1.0
  outer loop
    vertex 6.0 35.0 12.0
    vertex 11.0 33.50000000000001 12.0
    vertex 33.99999999999999 35.0 12.0
  endloop
endfacet
facet normal 1.415645824572238e-17 8.392757388535452e-18 1.0
  outer loop
    vertex 11.0 33.50000000000001 12.0
    vertex 6.0 35.0 12.0
    vertex 10.611771432346218 33.448888739433606 12.0
  endloop
endfacet
facet normal 1.415645824572238e-17 8.392757388535452e-18 1.0
  outer loop
    vertex 10.611771432346218 33.448888739433606 12.0
    vertex 6.0 35.0 12.0
    vertex 10.25 33.29903810567666 12.0
  endloop
endfacet
facet normal 1.415645824572238e-17 8.392757388535452e-18 1.0
  outer loop
    vertex 10.25 33.29903810567666 12.0
    vertex 6.0 35.0 12.0
    vertex 9.939339828220179 33.06066017177983 12.0
  endloop
endfacet
facet normal 1.415645824572238e-17 8.392757388535452e-18 1.0
  outer loop
    vertex 9.939339828220179 33.06066017177983 12.0
    vertex 6.0 35.0 12.0
    vertex 9.700961894323342 32.75 12.0
  endloop
endfacet
facet normal 1.415645824572238e-17 8.392757388535452e-18 1.0
  outer loop
    vertex 9.700961894323342 32.75 12.0
    vertex 6.0 35.0 12.0
    vertex 9.551111260566397 32.38822856765378 12.0
  endloop
endfacet
facet normal 1.415645824572238e-17 8.392757388535452e-18 1.0
  outer loop
    vertex 9.551111260566397 32.38822856765378 12.0
    vertex 6.0 35.0 12.0
    vertex 9.5 32.0 12.0
  endloop
endfacet
facet normal 1.415645824572238e-17 8.392757388535452e-18 1.0
  outer loop
    vertex 33.99999999999999 35.0 12.0
    vertex 11.0 33.50000000000001 12.0
    vertex 11.388228567653782 33.448888739433606 12.0
  endloop
endfacet
facet normal 1.415645824572238e-17 8.392757388535452e-18 1.0
  outer loop
    vertex 33.99999999999999 35.0 12.0
    vertex 11.388228567653782 33.448888739433606 12.0
    vertex 11.75 33.29903810567666 12.0
  endloop
endfacet
facet normal 1.415645824572238e-17 8.392757388535452e-18 1.0
  outer loop
    vertex 33.99999999999999 35.0 12.0
    vertex 11.75 33.29903810567666 12.0
    vertex 12.060660171779821 33.06066017177983 12.0
  endloop
endfacet
facet normal 1.415645824572238e-17 8.392757388535452e-18 1.0
  outer loop
    vertex 33.99999999999999 35.0 12.0
    vertex 12.060660171779821 33.06066017177983 12.0
    vertex 12.299038105676656 32.75 12.0
  endloop
endfacet
facet normal 1.415645824572238e-17 8.392757388535452e-18 1.0
  outer loop
    vertex 33.99999999999999 35.0 12.0
    vertex 12.299038105676656 32.75 12.0
    vertex 12.448888739433603 32.38822856765379 12.0
  endloop
endfacet
facet normal 1.415645824572238e-17 8.392757388535452e-18 1.0
  outer loop
    vertex 33.99999999999999 35.0 12.0
    vertex 12.448888739433603 32.38822856765379 12.0
    vertex 12.5 32.0 12.0
  endloop
endfacet
facet normal 1.415645824572238e-17 8.392757388535452e-18 1.0
  outer loop
    vertex 33.99999999999999 35.0 12.0
    vertex 12.5 32.0 12.0
    vertex 28.611771432346224 33.4488887394336 12.0
  endloop
endfacet
facet normal 1.415645824572238e-17 8.392757388535452e-18 1.0
  outer loop
    vertex 28.611771432346224 33.4488887394336 12.0
    vertex 12.5 32.0 12.0
    vertex 28.250000000000004 33.29903810567666 12.0
  endloop
endfacet
facet normal 1.415645824572238e-17 8.392757388535452e-18 1.0
  outer loop
    vertex 28.250000000000004 33.29903810567666 12.0
    vertex 12.5 32.0 12.0
    vertex 27.939339828220184 33.06066017177982 12.0
  endloop
endfacet
facet normal 1.415645824572238e-17 8.392757388535452e-18 1.0
  outer loop
    vertex 27.939339828220184 33.06066017177982 12.0
    vertex 12.5 32.0 12.0
    vertex 27.70096189432335 32.75 12.0
  endloop
endfacet
facet normal 1.415645824572238e-17 8.392757388535452e-18 1.0
  outer loop
    vertex 27.70096189432335 32.75 12.0
    vertex 12.5 32.0 12.0
    vertex 27.5511112605664 32.38822856765378 12.0
  endloop
endfacet
facet normal 1.415645824572238e-17 8.392757388535452e-18 1.0
  outer loop
    vertex 27.5511112605664 32.38822856765378 12.0
    vertex 12.5 32.0 12.0
    vertex 27.500000000000007 32.0 12.0
  endloop
endfacet
facet normal 1.415645824572238e-17 8.392757388535452e-18 1.0
  outer loop
    vertex 33.99999999999999 35.0 12.0
    vertex 28.611771432346224 33.4488887394336 12.0
    vertex 29.000000000000004 33.5 12.0
  endloop
endfacet
facet normal 1.415645824572238e-17 8.392757388535452e-18 1.0
  outer loop
    vertex 33.99999999999999 35.0 12.0
    vertex 29.000000000000004 33.5 12.0
    vertex 29.388228567653783 33.448888739433606 12.0
  endloop
endfacet
facet normal 1.415645824572238e-17 8.392757388535452e-18 1.0
  outer loop
    vertex 33.99999999999999 35.0 12.0
    vertex 29.388228567653783 33.448888739433606 12.0
    vertex 29.750000000000004 33.29903810567666 12.0
  endloop
endfacet
facet normal 1.415645824572238e-17 8.392757388535452e-18 1.0
  outer loop
    vertex 33.99999999999999 35.0 12.0
    vertex 29.750000000000004 33.29903810567666 12.0
    vertex 30.060660171779823 33.06066017177982 12.0
  endloop
endfacet
facet normal 1.415645824572238e-17 8.392757388535452e-18 1.0
  outer loop
    vertex 33.99999999999999 35.0 12.0
    vertex 30.060660171779823 33.06066017177982 12.0
    vertex 30.299038105676658 32.75 12.0
  endloop
endfacet
facet normal 1.415645824572238e-17 8.392757388535452e-18 1.0
  outer loop
    vertex 33.99999999999999 35.0 12.0
    vertex 30.299038105676658 32.75 12.0
    vertex 30.4488887394336 32.38822856765378 12.0
  endloop
endfacet
facet normal 1.415645824572238e-17 8.392757388535452e-18 1.0
  outer loop
    vertex 33.99999999999999 35.0 12.0
    vertex 30.4488887394336 32.38822856765378 12.0
    vertex 30.5 32.0 12.0
  endloop
endfacet
facet normal 0.0 1.0 0.0
  outer loop
    vertex 0.0 29.000000000000014 8.999999999999998
    vertex 40.0 29.000000000000014 0.9999999999999996
    vertex 0.0 29.000000000000014 0.9999999999999996
  endloop
endfacet
facet normal 0.0 1.0 0.0
  outer loop
    vertex 40.0 29.000000000000014 0.9999999999999996
    vertex 0.0 29.000000000000014 8.999999999999998
    vertex 40.0 29.000000000000014 8.999999999999998
  endloop
endfacet
facet normal 0.9914448613738113 -0.13052619222004555 -7.688680123636272e-32
  outer loop
    vertex 27.5511112605664 32.38822856765378 8.999999999999998
    vertex 27.500000000000007 32.0 12.0
    vertex 27.500000000000007 32.0 8.999999999999998
  endloop
endfacet
facet normal 0.9914448613738113 -0.13052619222004555 -7.688680123636272e-32
  outer loop
    vertex 27.500000000000007 32.0 12.0
    vertex 27.5511112605664 32.38822856765378 8.999999999999998
    vertex 27.5511112605664 32.38822856765378 12.0
  endloop
endfacet
facet normal 0.9914448613738096 0.13052619222005782 7.688680123637001e-32
  outer loop
    vertex 27.500000000000007 32.0 8.999999999999998
    vertex 27.551111260566408 31.61177143234622 12.0
    vertex 27.551111260566408 31.61177143234622 8.999999999999998
  endloop
endfacet
facet normal 0.9914448613738096 0.13052619222005782 7.688680123637001e-32
  outer loop
    vertex 27.551111260566408 31.61177143234622 12.0
    vertex 27.500000000000007 32.0 8.999999999999998
    vertex 27.500000000000007 32.0 12.0
  endloop
endfacet
facet normal 0.9238795325112883 0.3826834323650859 2.2542069526628505e-31
  outer loop
    vertex 27.551111260566408 31.61177143234622 8.999999999999998
    vertex 27.70096189432335 31.250000000000004 12.0
    vertex 27.70096189432335 31.250000000000004 8.999999999999998
  endloop
endfacet
facet normal 0.9238795325112883 0.3826834323650859 2.2542069526628505e-31
  outer loop
    vertex 27.70096189432335 31.250000000000004 12.0
    vertex 27.551111260566408 31.61177143234622 8.999999999999998
    vertex 27.551111260566408 31.61177143234622 12.0
  endloop
endfacet
facet normal 0.7933533402912324 0.6087614290087242 3.585925414391254e-31
  outer loop
    vertex 27.70096189432335 31.250000000000004 8.999999999999998
    vertex 27.939339828220184 30.939339828220184 12.0
    vertex 27.939339828220184 30.939339828220184 8.999999999999998
  endloop
endfacet
facet normal 0.7933533402912324 0.6087614290087242 3.585925414391254e-31
  outer loop
    vertex 27.939339828220184 30.939339828220184 12.0
    vertex 27.70096189432335 31.250000000000004 8.999999999999998
    vertex 27.70096189432335 31.250000000000004 12.0
  endloop
endfacet
facet normal 0.6087614290087242 0.7933533402912324 4.673268985150754e-31
  outer loop
    vertex 27.939339828220184 30.939339828220184 12.0
    vertex 28.250000000000004 30.70096189432335 8.999999999999998
    vertex 27.939339828220184 30.939339828220184 8.999999999999998
  endloop
endfacet
facet normal 0.6087614290087242 0.7933533402912324 4.673268985150754e-31
  outer loop
    vertex 28.250000000000004 30.70096189432335 8.999999999999998
    vertex 27.939339828220184 30.939339828220184 12.0
    vertex 28.250000000000004 30.70096189432335 12.0
  endloop
endfacet
facet normal 0.38268343236509306 0.9238795325112853 5.4421369975144245e-31
  outer loop
    vertex 28.250000000000004 30.70096189432335 12.0
    vertex 28.611771432346224 30.5511112605664 8.999999999999998
    vertex 28.250000000000004 30.70096189432335 8.999999999999998
  endloop
endfacet
facet normal 0.38268343236509306 0.9238795325112853 5.4421369975144245e-31
  outer loop
    vertex 28.611771432346224 30.5511112605664 8.999999999999998
    vertex 28.250000000000004 30.70096189432335 12.0
    vertex 28.611771432346224 30.5511112605664 12.0
  endloop
endfacet
facet normal 0.13052619222004555 0.9914448613738113 5.840132367054112e-31
  outer loop
    vertex 28.611771432346224 30.5511112605664 12.0
    vertex 29.000000000000004 30.500000000000007 8.999999999999998
    vertex 28.611771432346224 30.5511112605664 8.999999999999998
  endloop
endfacet
facet normal 0.13052619222004555 0.9914448613738113 5.840132367054112e-31
  outer loop
    vertex 29.000000000000004 30.500000000000007 8.999999999999998
    vertex 28.611771432346224 30.5511112605664 12.0
    vertex 29.000000000000004 30.500000000000007 12.0
  endloop
endfacet
facet normal -0.13052619222005782 0.9914448613738096 5.840132367054102e-31
  outer loop
    vertex 29.000000000000004 30.500000000000007 12.0
    vertex 29.388228567653787 30.551111260566408 8.999999999999998
    vertex 29.000000000000004 30.500000000000007 8.999999999999998
  endloop
endfacet
facet normal -0.13052619222005782 0.9914448613738096 5.840132367054102e-31
  outer loop
    vertex 29.388228567653787 30.551111260566408 8.999999999999998
    vertex 29.000000000000004 30.500000000000007 12.0
    vertex 29.388228567653787 30.551111260566408 12.0
  endloop
endfacet
facet normal -0.3826834323650859 0.9238795325112883 5.442136997514443e-31
  outer loop
    vertex 29.388228567653787 30.551111260566408 12.0
    vertex 29.750000000000004 30.70096189432335 8.999999999999998
    vertex 29.388228567653787 30.551111260566408 8.999999999999998
  endloop
endfacet
facet normal -0.3826834323650859 0.9238795325112883 5.442136997514443e-31
  outer loop
    vertex 29.750000000000004 30.70096189432335 8.999999999999998
    vertex 29.388228567653787 30.551111260566408 12.0
    vertex 29.750000000000004 30.70096189432335 12.0
  endloop
endfacet
facet normal -0.6087614290087242 0.7933533402912324 4.673268985150754e-31
  outer loop
    vertex 29.750000000000004 30.70096189432335 12.0
    vertex 30.060660171779823 30.939339828220184 8.999999999999998
    vertex 29.750000000000004 30.70096189432335 8.999999999999998
  endloop
endfacet
facet normal -0.6087614290087242 0.7933533402912324 4.673268985150754e-31
  outer loop
    vertex 30.060660171779823 30.939339828220184 8.999999999999998
    vertex 29.750000000000004 30.70096189432335 12.0
    vertex 30.060660171779823 30.939339828220184 12.0
  endloop
endfacet
facet normal -0.7933533402912324 0.6087614290087242 3.585925414391254e-31
  outer loop
    vertex 30.299038105676658 31.250000000000004 12.0
    vertex 30.060660171779823 30.939339828220184 8.999999999999998
    vertex 30.060660171779823 30.939339828220184 12.0
  endloop
endfacet
facet normal -0.7933533402912324 0.6087614290087242 3.585925414391254e-31
  outer loop
    vertex 30.060660171779823 30.939339828220184 8.999999999999998
    vertex 30.299038105676658 31.250000000000004 12.0
    vertex 30.299038105676658 31.250000000000004 8.999999999999998
  endloop
endfacet
facet normal -0.9238795325112853 0.38268343236509306 2.2542069526628925e-31
  outer loop
    vertex 30.448888739433606 31.611771432346224 12.0
    vertex 30.299038105676658 31.250000000000004 8.999999999999998
    vertex 30.299038105676658 31.250000000000004 12.0
  endloop
endfacet
facet normal -0.9238795325112853 0.38268343236509306 2.2542069526628925e-31
  outer loop
    vertex 30.299038105676658 31.250000000000004 8.999999999999998
    vertex 30.448888739433606 31.611771432346224 12.0
    vertex 30.448888739433606 31.611771432346224 8.999999999999998
  endloop
endfacet
facet normal -0.9914448613738113 0.13052619222004555 7.688680123636272e-32
  outer loop
    vertex 30.5 32.0 12.0
    vertex 30.448888739433606 31.611771432346224 8.999999999999998
    vertex 30.448888739433606 31.611771432346224 12.0
  endloop
endfacet
facet normal -0.9914448613738113 0.13052619222004555 7.688680123636272e-32
  outer loop
    vertex 30.448888739433606 31.611771432346224 8.999999999999998
    vertex 30.5 32.0 12.0
    vertex 30.5 32.0 8.999999999999998
  endloop
endfacet
facet normal -0.9914448613738094 -0.13052619222005968 -7.688680123637111e-32
  outer loop
    vertex 30.4488887394336 32.38822856765378 12.0
    vertex 30.5 32.0 8.999999999999998
    vertex 30.5 32.0 12.0
  endloop
endfacet
facet normal -0.9914448613738094 -0.13052619222005968 -7.688680123637111e-32
  outer loop
    vertex 30.5 32.0 8.999999999999998
    vertex 30.4488887394336 32.38822856765378 12.0
    vertex 30.4488887394336 32.38822856765378 8.999999999999998
  endloop
endfacet
facet normal -0.9238795325112906 -0.38268343236508084 -2.2542069526628207e-31
  outer loop
    vertex 30.299038105676658 32.75 12.0
    vertex 30.4488887394336 32.38822856765378 8.999999999999998
    vertex 30.4488887394336 32.38822856765378 12.0
  endloop
endfacet
facet normal -0.9238795325112906 -0.38268343236508084 -2.2542069526628207e-31
  outer loop
    vertex 30.4488887394336 32.38822856765378 8.999999999999998
    vertex 30.299038105676658 32.75 12.0
    vertex 30.299038105676658 32.75 8.999999999999998
  endloop
endfacet
facet normal -0.7933533402912324 -0.6087614290087242 -3.585925414391254e-31
  outer loop
    vertex 30.060660171779823 33.06066017177982 12.0
    vertex 30.299038105676658 32.75 8.999999999999998
    vertex 30.299038105676658 32.75 12.0
  endloop
endfacet
facet normal -0.7933533402912324 -0.6087614290087242 -3.585925414391254e-31
  outer loop
    vertex 30.299038105676658 32.75 8.999999999999998
    vertex 30.060660171779823 33.06066017177982 12.0
    vertex 30.060660171779823 33.06066017177982 8.999999999999998
  endloop
endfacet
facet normal -0.6087614290087242 -0.7933533402912324 -4.673268985150754e-31
  outer loop
    vertex 30.060660171779823 33.06066017177982 12.0
    vertex 29.750000000000004 33.29903810567666 8.999999999999998
    vertex 30.060660171779823 33.06066017177982 8.999999999999998
  endloop
endfacet
facet normal -0.6087614290087242 -0.7933533402912324 -4.673268985150754e-31
  outer loop
    vertex 29.750000000000004 33.29903810567666 8.999999999999998
    vertex 30.060660171779823 33.06066017177982 12.0
    vertex 29.750000000000004 33.29903810567666 12.0
  endloop
endfacet
facet normal -0.38268343236509306 -0.9238795325112853 -5.4421369975144245e-31
  outer loop
    vertex 29.750000000000004 33.29903810567666 12.0
    vertex 29.388228567653783 33.448888739433606 8.999999999999998
    vertex 29.750000000000004 33.29903810567666 8.999999999999998
  endloop
endfacet
facet normal -0.38268343236509306 -0.9238795325112853 -5.4421369975144245e-31
  outer loop
    vertex 29.388228567653783 33.448888739433606 8.999999999999998
    vertex 29.750000000000004 33.29903810567666 12.0
    vertex 29.388228567653783 33.448888739433606 12.0
  endloop
endfacet
facet normal -0.13052619222004555 -0.9914448613738113 -5.840132367054112e-31
  outer loop
    vertex 29.388228567653783 33.448888739433606 12.0
    vertex 29.000000000000004 33.5 8.999999999999998
    vertex 29.388228567653783 33.448888739433606 8.999999999999998
  endloop
endfacet
facet normal -0.13052619222004555 -0.9914448613738113 -5.840132367054112e-31
  outer loop
    vertex 29.000000000000004 33.5 8.999999999999998
    vertex 29.388228567653783 33.448888739433606 12.0
    vertex 29.000000000000004 33.5 12.0
  endloop
endfacet
facet normal 0.13052619222005968 -0.9914448613738094 -5.840132367054101e-31
  outer loop
    vertex 29.000000000000004 33.5 12.0
    vertex 28.611771432346224 33.4488887394336 8.999999999999998
    vertex 29.000000000000004 33.5 8.999999999999998
  endloop
endfacet
facet normal 0.13052619222005968 -0.9914448613738094 -5.840132367054101e-31
  outer loop
    vertex 28.611771432346224 33.4488887394336 8.999999999999998
    vertex 29.000000000000004 33.5 12.0
    vertex 28.611771432346224 33.4488887394336 12.0
  endloop
endfacet
facet normal 0.38268343236508084 -0.9238795325112906 -5.442136997514456e-31
  outer loop
    vertex 28.611771432346224 33.4488887394336 12.0
    vertex 28.250000000000004 33.29903810567666 8.999999999999998
    vertex 28.611771432346224 33.4488887394336 8.999999999999998
  endloop
endfacet
facet normal 0.38268343236508084 -0.9238795325112906 -5.442136997514456e-31
  outer loop
    vertex 28.250000000000004 33.29903810567666 8.999999999999998
    vertex 28.611771432346224 33.4488887394336 12.0
    vertex 28.250000000000004 33.29903810567666 12.0
  endloop
endfacet
facet normal 0.6087614290087242 -0.7933533402912324 -4.673268985150754e-31
  outer loop
    vertex 28.250000000000004 33.29903810567666 12.0
    vertex 27.939339828220184 33.06066017177982 8.999999999999998
    vertex 28.250000000000004 33.29903810567666 8.999999999999998
  endloop
endfacet
facet normal 0.6087614290087242 -0.7933533402912324 -4.673268985150754e-31
  outer loop
    vertex 27.939339828220184 33.06066017177982 8.999999999999998
    vertex 28.250000000000004 33.29903810567666 12.0
    vertex 27.939339828220184 33.06066017177982 12.0
  endloop
endfacet
facet normal 0.7933533402912324 -0.6087614290087242 -3.585925414391254e-31
  outer loop
    vertex 27.939339828220184 33.06066017177982 8.999999999999998
    vertex 27.70096189432335 32.75 12.0
    vertex 27.70096189432335 32.75 8.999999999999998
  endloop
endfacet
facet normal 0.7933533402912324 -0.6087614290087242 -3.585925414391254e-31
  outer loop
    vertex 27.70096189432335 32.75 12.0
    vertex 27.939339828220184 33.06066017177982 8.999999999999998
    vertex 27.939339828220184 33.06066017177982 12.0
  endloop
endfacet
facet normal 0.9238795325112853 -0.38268343236509306 -2.2542069526628925e-31
  outer loop
    vertex 27.70096189432335 32.75 8.999999999999998
    vertex 27.5511112605664 32.38822856765378 12.0
    vertex 27.5511112605664 32.38822856765378 8.999999999999998
  endloop
endfacet
facet normal 0.9238795325112853 -0.38268343236509306 -2.2542069526628925e-31
  outer loop
    vertex 27.5511112605664 32.38822856765378 12.0
    vertex 27.70096189432335 32.75 8.999999999999998
    vertex 27.70096189432335 32.75 12.0
  endloop
endfacet
facet normal 0.9238795325112867 -0.38268343236509006 -1.3605342493786033e-31
  outer loop
    vertex 9.700961894323342 32.75 8.999999999999998
    vertex 9.551111260566397 32.38822856765378 12.0
    vertex 9.551111260566397 32.38822856765378 8.999999999999998
  endloop
endfacet
facet normal 0.9238795325112867 -0.38268343236509006 -1.3605342493786033e-31
  outer loop
    vertex 9.551111260566397 32.38822856765378 12.0
    vertex 9.700961894323342 32.75 8.999999999999998
    vertex 9.700961894323342 32.75 12.0
  endloop
endfacet
facet normal 0.9914448613738104 -0.13052619222005263 -1.4600330917635212e-31
  outer loop
    vertex 9.551111260566397 32.38822856765378 8.999999999999998
    vertex 9.5 32.0 12.0
    vertex 9.5 32.0 8.999999999999998
  endloop
endfacet
facet normal 0.9914448613738104 -0.13052619222005263 -1.4600330917635212e-31
  outer loop
    vertex 9.5 32.0 12.0
    vertex 9.551111260566397 32.38822856765378 8.999999999999998
    vertex 9.551111260566397 32.38822856765378 12.0
  endloop
endfacet
facet normal 0.9914448613738105 0.13052619222005074 -1.460033091763521e-31
  outer loop
    vertex 9.5 32.0 8.999999999999998
    vertex 9.551111260566397 31.61177143234622 12.0
    vertex 9.551111260566397 31.61177143234622 8.999999999999998
  endloop
endfacet
facet normal 0.9914448613738105 0.13052619222005074 -1.460033091763521e-31
  outer loop
    vertex 9.551111260566397 31.61177143234622 12.0
    vertex 9.5 32.0 8.999999999999998
    vertex 9.5 32.0 12.0
  endloop
endfacet
facet normal 0.9238795325112845 0.3826834323650951 -1.3605342493785998e-31
  outer loop
    vertex 9.551111260566397 31.61177143234622 8.999999999999998
    vertex 9.700961894323342 31.250000000000004 12.0
    vertex 9.700961894323342 31.250000000000004 8.999999999999998
  endloop
endfacet
facet normal 0.9238795325112845 0.3826834323650951 -1.3605342493785998e-31
  outer loop
    vertex 9.700961894323342 31.250000000000004 12.0
    vertex 9.551111260566397 31.61177143234622 8.999999999999998
    vertex 9.551111260566397 31.61177143234622 12.0
  endloop
endfacet
facet normal 0.7933533402912395 0.608761429008715 -1.1683172462876942e-31
  outer loop
    vertex 9.700961894323342 31.250000000000004 8.999999999999998
    vertex 9.939339828220179 30.93933982822018 12.0
    vertex 9.939339828220179 30.93933982822018 8.999999999999998
  endloop
endfacet
facet normal 0.7933533402912395 0.608761429008715 -1.1683172462876942e-31
  outer loop
    vertex 9.939339828220179 30.93933982822018 12.0
    vertex 9.700961894323342 31.250000000000004 8.999999999999998
    vertex 9.700961894323342 31.250000000000004 12.0
  endloop
endfacet
facet normal 0.6087614290087117 0.793353340291242 -8.96481353597791e-32
  outer loop
    vertex 9.939339828220179 30.93933982822018 12.0
    vertex 10.250000000000002 30.70096189432335 8.999999999999998
    vertex 9.939339828220179 30.93933982822018 8.999999999999998
  endloop
endfacet
facet normal 0.6087614290087117 0.793353340291242 -8.96481353597791e-32
  outer loop
    vertex 10.250000000000002 30.70096189432335 8.999999999999998
    vertex 9.939339828220179 30.93933982822018 12.0
    vertex 10.250000000000002 30.70096189432335 12.0
  endloop
endfacet
facet normal 0.38268343236509444 0.923879532511285 -5.635517381657222e-32
  outer loop
    vertex 10.250000000000002 30.70096189432335 12.0
    vertex 10.61177143234622 30.5511112605664 8.999999999999998
    vertex 10.250000000000002 30.70096189432335 8.999999999999998
  endloop
endfacet
facet normal 0.38268343236509444 0.923879532511285 -5.635517381657222e-32
  outer loop
    vertex 10.61177143234622 30.5511112605664 8.999999999999998
    vertex 10.250000000000002 30.70096189432335 12.0
    vertex 10.61177143234622 30.5511112605664 12.0
  endloop
endfacet
facet normal 0.13052619222005923 0.9914448613738095 -1.9221700309092547e-32
  outer loop
    vertex 10.61177143234622 30.5511112605664 12.0
    vertex 11.0 30.5 8.999999999999998
    vertex 10.61177143234622 30.5511112605664 8.999999999999998
  endloop
endfacet
facet normal 0.13052619222005923 0.9914448613738095 -1.9221700309092547e-32
  outer loop
    vertex 11.0 30.5 8.999999999999998
    vertex 10.61177143234622 30.5511112605664 12.0
    vertex 11.0 30.5 12.0
  endloop
endfacet
facet normal -0.1305261922200583 0.9914448613738095 1.922170030909258e-32
  outer loop
    vertex 11.0 30.5 12.0
    vertex 11.388228567653782 30.5511112605664 8.999999999999998
    vertex 11.0 30.5 8.999999999999998
  endloop
endfacet
facet normal -0.1305261922200583 0.9914448613738095 1.922170030909258e-32
  outer loop
    vertex 11.388228567653782 30.5511112605664 8.999999999999998
    vertex 11.0 30.5 12.0
    vertex 11.388228567653782 30.5511112605664 12.0
  endloop
endfacet
facet normal -0.3826834323650957 0.9238795325112844 5.635517381657256e-32
  outer loop
    vertex 11.388228567653782 30.5511112605664 12.0
    vertex 11.75 30.70096189432335 8.999999999999998
    vertex 11.388228567653782 30.5511112605664 8.999999999999998
  endloop
endfacet
facet normal -0.3826834323650957 0.9238795325112844 5.635517381657256e-32
  outer loop
    vertex 11.75 30.70096189432335 8.999999999999998
    vertex 11.388228567653782 30.5511112605664 12.0
    vertex 11.75 30.70096189432335 12.0
  endloop
endfacet
facet normal -0.6087614290087224 0.7933533402912337 8.964813535978083e-32
  outer loop
    vertex 11.75 30.70096189432335 12.0
    vertex 12.060660171779821 30.939339828220184 8.999999999999998
    vertex 11.75 30.70096189432335 8.999999999999998
  endloop
endfacet
facet normal -0.6087614290087224 0.7933533402912337 8.964813535978083e-32
  outer loop
    vertex 12.060660171779821 30.939339828220184 8.999999999999998
    vertex 11.75 30.70096189432335 12.0
    vertex 12.060660171779821 30.939339828220184 12.0
  endloop
endfacet
facet normal -0.7933533402912324 0.6087614290087242 1.1683172462876848e-31
  outer loop
    vertex 12.299038105676658 31.250000000000004 12.0
    vertex 12.060660171779821 30.939339828220184 8.999999999999998
    vertex 12.060660171779821 30.939339828220184 12.0
  endloop
endfacet
facet normal -0.7933533402912324 0.6087614290087242 1.1683172462876848e-31
  outer loop
    vertex 12.060660171779821 30.939339828220184 8.999999999999998
    vertex 12.299038105676658 31.250000000000004 12.0
    vertex 12.299038105676658 31.250000000000004 8.999999999999998
  endloop
endfacet
facet normal -0.923879532511288 0.38268343236508695 1.3605342493786053e-31
  outer loop
    vertex 12.448888739433603 31.611771432346224 12.0
    vertex 12.299038105676658 31.250000000000004 8.999999999999998
    vertex 12.299038105676658 31.250000000000004 12.0
  endloop
endfacet
facet normal -0.923879532511288 0.38268343236508695 1.3605342493786053e-31
  outer loop
    vertex 12.299038105676658 31.250000000000004 8.999999999999998
    vertex 12.448888739433603 31.611771432346224 12.0
    vertex 12.448888739433603 31.611771432346224 8.999999999999998
  endloop
endfacet
facet normal -0.9914448613738104 0.13052619222005263 1.4600330917635212e-31
  outer loop
    vertex 12.5 32.0 12.0
    vertex 12.448888739433603 31.611771432346224 8.999999999999998
    vertex 12.448888739433603 31.611771432346224 12.0
  endloop
endfacet
facet normal -0.9914448613738104 0.13052619222005263 1.4600330917635212e-31
  outer loop
    vertex 12.448888739433603 31.611771432346224 8.999999999999998
    vertex 12.5 32.0 12.0
    vertex 12.5 32.0 8.999999999999998
  endloop
endfacet
facet normal -0.9914448613738105 -0.13052619222005074 1.460033091763521e-31
  outer loop
    vertex 12.448888739433603 32.38822856765379 12.0
    vertex 12.5 32.0 8.999999999999998
    vertex 12.5 32.0 12.0
  endloop
endfacet
facet normal -0.9914448613738105 -0.13052619222005074 1.460033091763521e-31
  outer loop
    vertex 12.5 32.0 8.999999999999998
    vertex 12.448888739433603 32.38822856765379 12.0
    vertex 12.448888739433603 32.38822856765379 8.999999999999998
  endloop
endfacet
facet normal -0.9238795325112845 -0.3826834323650951 1.3605342493785998e-31
  outer loop
    vertex 12.299038105676656 32.75 12.0
    vertex 12.448888739433603 32.38822856765379 8.999999999999998
    vertex 12.448888739433603 32.38822856765379 12.0
  endloop
endfacet
facet normal -0.9238795325112845 -0.3826834323650951 1.3605342493785998e-31
  outer loop
    vertex 12.448888739433603 32.38822856765379 8.999999999999998
    vertex 12.299038105676656 32.75 12.0
    vertex 12.299038105676656 32.75 8.999999999999998
  endloop
endfacet
facet normal -0.7933533402912395 -0.608761429008715 1.1683172462876942e-31
  outer loop
    vertex 12.060660171779821 33.06066017177983 12.0
    vertex 12.299038105676656 32.75 8.999999999999998
    vertex 12.299038105676656 32.75 12.0
  endloop
endfacet
facet normal -0.7933533402912395 -0.608761429008715 1.1683172462876942e-31
  outer loop
    vertex 12.299038105676656 32.75 8.999999999999998
    vertex 12.060660171779821 33.06066017177983 12.0
    vertex 12.060660171779821 33.06066017177983 8.999999999999998
  endloop
endfacet
facet normal -0.6087614290087133 -0.7933533402912407 8.964813535977935e-32
  outer loop
    vertex 12.060660171779821 33.06066017177983 12.0
    vertex 11.75 33.29903810567666 8.999999999999998
    vertex 12.060660171779821 33.06066017177983 8.999999999999998
  endloop
endfacet
facet normal -0.6087614290087133 -0.7933533402912407 8.964813535977935e-32
  outer loop
    vertex 11.75 33.29903810567666 8.999999999999998
    vertex 12.060660171779821 33.06066017177983 12.0
    vertex 11.75 33.29903810567666 12.0
  endloop
endfacet
facet normal -0.38268343236509444 -0.923879532511285 5.635517381657222e-32
  outer loop
    vertex 11.75 33.29903810567666 12.0
    vertex 11.388228567653782 33.448888739433606 8.999999999999998
    vertex 11.75 33.29903810567666 8.999999999999998
  endloop
endfacet
facet normal -0.38268343236509444 -0.923879532511285 5.635517381657222e-32
  outer loop
    vertex 11.388228567653782 33.448888739433606 8.999999999999998
    vertex 11.75 33.29903810567666 12.0
    vertex 11.388228567653782 33.448888739433606 12.0
  endloop
endfacet
facet normal -0.13052619222005876 -0.9914448613738096 1.9221700309092478e-32
  outer loop
    vertex 11.388228567653782 33.448888739433606 12.0
    vertex 11.0 33.50000000000001 8.999999999999998
    vertex 11.388228567653782 33.448888739433606 8.999999999999998
  endloop
endfacet
facet normal -0.13052619222005876 -0.9914448613738096 1.9221700309092478e-32
  outer loop
    vertex 11.0 33.50000000000001 8.999999999999998
    vertex 11.388228567653782 33.448888739433606 12.0
    vertex 11.0 33.50000000000001 12.0
  endloop
endfacet
facet normal 0.13052619222005876 -0.9914448613738096 -1.922170030909265e-32
  outer loop
    vertex 11.0 33.50000000000001 12.0
    vertex 10.611771432346218 33.448888739433606 8.999999999999998
    vertex 11.0 33.50000000000001 8.999999999999998
  endloop
endfacet
facet normal 0.13052619222005876 -0.9914448613738096 -1.922170030909265e-32
  outer loop
    vertex 10.611771432346218 33.448888739433606 8.999999999999998
    vertex 11.0 33.50000000000001 12.0
    vertex 10.611771432346218 33.448888739433606 12.0
  endloop
endfacet
facet normal 0.38268343236509444 -0.923879532511285 -5.635517381657238e-32
  outer loop
    vertex 10.611771432346218 33.448888739433606 12.0
    vertex 10.25 33.29903810567666 8.999999999999998
    vertex 10.611771432346218 33.448888739433606 8.999999999999998
  endloop
endfacet
facet normal 0.38268343236509444 -0.923879532511285 -5.635517381657238e-32
  outer loop
    vertex 10.25 33.29903810567666 8.999999999999998
    vertex 10.611771432346218 33.448888739433606 12.0
    vertex 10.25 33.29903810567666 12.0
  endloop
endfacet
facet normal 0.6087614290087133 -0.7933533402912407 -8.964813535977948e-32
  outer loop
    vertex 10.25 33.29903810567666 12.0
    vertex 9.939339828220179 33.06066017177983 8.999999999999998
    vertex 10.25 33.29903810567666 8.999999999999998
  endloop
endfacet
facet normal 0.6087614290087133 -0.7933533402912407 -8.964813535977948e-32
  outer loop
    vertex 9.939339828220179 33.06066017177983 8.999999999999998
    vertex 10.25 33.29903810567666 12.0
    vertex 9.939339828220179 33.06066017177983 12.0
  endloop
endfacet
facet normal 0.7933533402912395 -0.608761429008715 -1.168317246287695e-31
  outer loop
    vertex 9.939339828220179 33.06066017177983 8.999999999999998
    vertex 9.700961894323342 32.75 12.0
    vertex 9.700961894323342 32.75 8.999999999999998
  endloop
endfacet
facet normal 0.7933533402912395 -0.608761429008715 -1.168317246287695e-31
  outer loop
    vertex 9.700961894323342 32.75 12.0
    vertex 9.939339828220179 33.06066017177983 8.999999999999998
    vertex 9.939339828220179 33.06066017177983 12.0
  endloop
endfacet
facet normal 0.0 1.0 0.0
  outer loop
    vertex 6.0 35.0 12.0
    vertex 33.99999999999999 35.0 8.999999999999998
    vertex 6.0 35.0 8.999999999999998
  endloop
endfacet
facet normal 0.0 1.0 0.0
  outer loop
    vertex 33.99999999999999 35.0 8.999999999999998
    vertex 6.0 35.0 12.0
    vertex 33.99999999999999 35.0 12.0
  endloop
endfacet
facet normal -1.0 0.0 0.0
  outer loop
    vertex 0.0 29.000000000000014 12.0
    vertex 0.0 17.0 7.499999999999999
    vertex 0.0 17.0 12.0
  endloop
endfacet
facet normal -1.0 0.0 0.0
  outer loop
    vertex 0.0 17.0 7.499999999999999
    vertex 0.0 12.0 0.9999999999999998
    vertex 0.0 12.0 7.499999999999999
  endloop
endfacet
facet normal -1.0 0.0 0.0
  outer loop
    vertex 0.0 12.0 0.9999999999999998
    vertex 0.0 17.0 7.499999999999999
    vertex 0.0 29.000000000000014 0.9999999999999996
  endloop
endfacet
facet normal -1.0 0.0 0.0
  outer loop
    vertex 0.0 29.000000000000014 0.9999999999999996
    vertex 0.0 17.0 7.499999999999999
    vertex 0.0 29.000000000000014 12.0
  endloop
endfacet
facet normal -1.0 0.0 0.0
  outer loop
    vertex 0.0 29.000000000000014 0.9999999999999996
    vertex 0.0 29.000000000000014 12.0
    vertex 0.0 29.000000000000014 8.999999999999998
  endloop
endfacet
facet normal -0.7071067811865466 0.7071067811865486 0.0
  outer loop
    vertex 0.0 29.000000000000014 12.0
    vertex 6.0 35.0 8.999999999999998
    vertex 0.0 29.000000000000014 8.999999999999998
  endloop
endfacet
facet normal -0.7071067811865466 0.7071067811865486 0.0
  outer loop
    vertex 6.0 35.0 8.999999999999998
    vertex 0.0 29.000000000000014 12.0
    vertex 6.0 35.0 12.0
  endloop
endfacet
facet normal 0.0 0.0 -1.0
  outer loop
    vertex 6.0 35.0 8.999999999999998
    vertex 9.551111260566397 32.38822856765378 8.999999999999998
    vertex 9.5 32.0 8.999999999999998
  endloop
endfacet
facet normal 0.0 0.0 -1.0
  outer loop
    vertex 9.551111260566397 32.38822856765378 8.999999999999998
    vertex 6.0 35.0 8.999999999999998
    vertex 9.700961894323342 32.75 8.999999999999998
  endloop
endfacet
facet normal 0.0 0.0 -1.0
  outer loop
    vertex 9.700961894323342 32.75 8.999999999999998
    vertex 6.0 35.0 8.999999999999998
    vertex 9.939339828220179 33.06066017177983 8.999999999999998
  endloop
endfacet
facet normal 0.0 0.0 -1.0
  outer loop
    vertex 9.939339828220179 33.06066017177983 8.999999999999998
    vertex 6.0 35.0 8.999999999999998
    vertex 10.25 33.29903810567666 8.999999999999998
  endloop
endfacet
facet normal 0.0 0.0 -1.0
  outer loop
    vertex 10.25 33.29903810567666 8.999999999999998
    vertex 6.0 35.0 8.999999999999998
    vertex 10.611771432346218 33.448888739433606 8.999999999999998
  endloop
endfacet
facet normal 0.0 0.0 -1.0
  outer loop
    vertex 10.611771432346218 33.448888739433606 8.999999999999998
    vertex 6.0 35.0 8.999999999999998
    vertex 11.0 33.50000000000001 8.999999999999998
  endloop
endfacet
facet normal 0.0 0.0 -1.0
  outer loop
    vertex 11.0 33.50000000000001 8.999999999999998
    vertex 6.0 35.0 8.999999999999998
    vertex 33.99999999999999 35.0 8.999999999999998
  endloop
endfacet
facet normal 0.0 0.0 -1.0
  outer loop
    vertex 11.0 33.50000000000001 8.999999999999998
    vertex 33.99999999999999 35.0 8.999999999999998
    vertex 11.388228567653782 33.448888739433606 8.999999999999998
  endloop
endfacet
facet normal 0.0 0.0 -1.0
  outer loop
    vertex 11.388228567653782 33.448888739433606 8.999999999999998
    vertex 33.99999999999999 35.0 8.999999999999998
    vertex 11.75 33.29903810567666 8.999999999999998
  endloop
endfacet
facet normal 0.0 0.0 -1.0
  outer loop
    vertex 11.75 33.29903810567666 8.999999999999998
    vertex 33.99999999999999 35.0 8.999999999999998
    vertex 12.060660171779821 33.06066017177983 8.999999999999998
  endloop
endfacet
facet normal 0.0 0.0 -1.0
  outer loop
    vertex 12.060660171779821 33.06066017177983 8.999999999999998
    vertex 33.99999999999999 35.0 8.999999999999998
    vertex 12.299038105676656 32.75 8.999999999999998
  endloop
endfacet
facet normal 0.0 0.0 -1.0
  outer loop
    vertex 12.299038105676656 32.75 8.999999999999998
    vertex 33.99999999999999 35.0 8.999999999999998
    vertex 12.448888739433603 32.38822856765379 8.999999999999998
  endloop
endfacet
facet normal 0.0 0.0 -1.0
  outer loop
    vertex 12.448888739433603 32.38822856765379 8.999999999999998
    vertex 33.99999999999999 35.0 8.999999999999998
    vertex 12.5 32.0 8.999999999999998
  endloop
endfacet
facet normal 0.0 0.0 -1.0
  outer loop
    vertex 12.5 32.0 8.999999999999998
    vertex 33.99999999999999 35.0 8.999999999999998
    vertex 28.611771432346224 33.4488887394336 8.999999999999998
  endloop
endfacet
facet normal 0.0 0.0 -1.0
  outer loop
    vertex 12.5 32.0 8.999999999999998
    vertex 28.611771432346224 33.4488887394336 8.999999999999998
    vertex 28.250000000000004 33.29903810567666 8.999999999999998
  endloop
endfacet
facet normal 0.0 0.0 -1.0
  outer loop
    vertex 12.5 32.0 8.999999999999998
    vertex 28.250000000000004 33.29903810567666 8.999999999999998
    vertex 27.939339828220184 33.06066017177982 8.999999999999998
  endloop
endfacet
facet normal 0.0 0.0 -1.0
  outer loop
    vertex 12.5 32.0 8.999999999999998
    vertex 27.939339828220184 33.06066017177982 8.999999999999998
    vertex 27.70096189432335 32.75 8.999999999999998
  endloop
endfacet
facet normal 0.0 0.0 -1.0
  outer loop
    vertex 12.5 32.0 8.999999999999998
    vertex 27.70096189432335 32.75 8.999999999999998
    vertex 27.5511112605664 32.38822856765378 8.999999999999998
  endloop
endfacet
facet normal 0.0 0.0 -1.0
  outer loop
    vertex 12.5 32.0 8.999999999999998
    vertex 27.5511112605664 32.38822856765378 8.999999999999998
    vertex 27.500000000000007 32.0 8.999999999999998
  endloop
endfacet
facet normal 0.0 0.0 -1.0
  outer loop
    vertex 28.611771432346224 33.4488887394336 8.999999999999998
    vertex 33.99999999999999 35.0 8.999999999999998
    vertex 29.000000000000004 33.5 8.999999999999998
  endloop
endfacet
facet normal 0.0 0.0 -1.0
  outer loop
    vertex 29.000000000000004 33.5 8.999999999999998
    vertex 33.99999999999999 35.0 8.999999999999998
    vertex 29.388228567653783 33.448888739433606 8.999999999999998
  endloop
endfacet
facet normal 0.0 0.0 -1.0
  outer loop
    vertex 29.388228567653783 33.448888739433606 8.999999999999998
    vertex 33.99999999999999 35.0 8.999999999999998
    vertex 29.750000000000004 33.29903810567666 8.999999999999998
  endloop
endfacet
facet normal 0.0 0.0 -1.0
  outer loop
    vertex 29.750000000000004 33.29903810567666 8.999999999999998
    vertex 33.99999999999999 35.0 8.999999999999998
    vertex 30.060660171779823 33.06066017177982 8.999999999999998
  endloop
endfacet
facet normal 0.0 0.0 -1.0
  outer loop
    vertex 30.060660171779823 33.06066017177982 8.999999999999998
    vertex 33.99999999999999 35.0 8.999999999999998
    vertex 30.299038105676658 32.75 8.999999999999998
  endloop
endfacet
facet normal 0.0 0.0 -1.0
  outer loop
    vertex 30.299038105676658 32.75 8.999999999999998
    vertex 33.99999999999999 35.0 8.999999999999998
    vertex 30.4488887394336 32.38822856765378 8.999999999999998
  endloop
endfacet
facet normal 0.0 0.0 -1.0
  outer loop
    vertex 30.4488887394336 32.38822856765378 8.999999999999998
    vertex 33.99999999999999 35.0 8.999999999999998
    vertex 30.5 32.0 8.999999999999998
  endloop
endfacet
facet normal 0.0 0.0 -1.0
  outer loop
    vertex 0.0 29.000000000000014 8.999999999999998
    vertex 11.0 30.5 8.999999999999998
    vertex 40.0 29.000000000000014 8.999999999999998
  endloop
endfacet
facet normal 0.0 0.0 -1.0
  outer loop
    vertex 11.0 30.5 8.999999999999998
    vertex 0.0 29.000000000000014 8.999999999999998
    vertex 10.61177143234622 30.5511112605664 8.999999999999998
  endloop
endfacet
facet normal 0.0 0.0 -1.0
  outer loop
    vertex 10.61177143234622 30.5511112605664 8.999999999999998
    vertex 0.0 29.000000000000014 8.999999999999998
    vertex 10.250000000000002 30.70096189432335 8.999999999999998
  endloop
endfacet
facet normal 0.0 0.0 -1.0
  outer loop
    vertex 10.250000000000002 30.70096189432335 8.999999999999998
    vertex 0.0 29.000000000000014 8.999999999999998
    vertex 9.939339828220179 30.93933982822018 8.999999999999998
  endloop
endfacet
facet normal 0.0 0.0 -1.0
  outer loop
    vertex 9.939339828220179 30.93933982822018 8.999999999999998
    vertex 0.0 29.000000000000014 8.999999999999998
    vertex 6.0 35.0 8.999999999999998
  endloop
endfacet
facet normal 0.0 0.0 -1.0
  outer loop
    vertex 9.939339828220179 30.93933982822018 8.999999999999998
    vertex 6.0 35.0 8.999999999999998
    vertex 9.700961894323342 31.250000000000004 8.999999999999998
  endloop
endfacet
facet normal 0.0 0.0 -1.0
  outer loop
    vertex 9.700961894323342 31.250000000000004 8.999999999999998
    vertex 6.0 35.0 8.999999999999998
    vertex 9.551111260566397 31.61177143234622 8.999999999999998
  endloop
endfacet
facet normal 0.0 0.0 -1.0
  outer loop
    vertex 9.551111260566397 31.61177143234622 8.999999999999998
    vertex 6.0 35.0 8.999999999999998
    vertex 9.5 32.0 8.999999999999998
  endloop
endfacet
facet normal 0.0 0.0 -1.0
  outer loop
    vertex 40.0 29.000000000000014 8.999999999999998
    vertex 11.0 30.5 8.999999999999998
    vertex 11.388228567653782 30.5511112605664 8.999999999999998
  endloop
endfacet
facet normal 0.0 0.0 -1.0
  outer loop
    vertex 40.0 29.000000000000014 8.999999999999998
    vertex 11.388228567653782 30.5511112605664 8.999999999999998
    vertex 11.75 30.70096189432335 8.999999999999998
  endloop
endfacet
facet normal 0.0 0.0 -1.0
  outer loop
    vertex 40.0 29.000000000000014 8.999999999999998
    vertex 11.75 30.70096189432335 8.999999999999998
    vertex 12.060660171779821 30.939339828220184 8.999999999999998
  endloop
endfacet
facet normal 0.0 0.0 -1.0
  outer loop
    vertex 40.0 29.000000000000014 8.999999999999998
    vertex 12.060660171779821 30.939339828220184 8.999999999999998
    vertex 12.299038105676658 31.250000000000004 8.999999999999998
  endloop
endfacet
facet normal 0.0 0.0 -1.0
  outer loop
    vertex 40.0 29.000000000000014 8.999999999999998
    vertex 12.299038105676658 31.250000000000004 8.999999999999998
    vertex 12.448888739433603 31.611771432346224 8.999999999999998
  endloop
endfacet
facet normal 0.0 0.0 -1.0
  outer loop
    vertex 40.0 29.000000000000014 8.999999999999998
    vertex 12.448888739433603 31.611771432346224 8.999999999999998
    vertex 12.5 32.0 8.999999999999998
  endloop
endfacet
facet normal 0.0 0.0 -1.0
  outer loop
    vertex 40.0 29.000000000000014 8.999999999999998
    vertex 12.5 32.0 8.999999999999998
    vertex 28.611771432346224 30.5511112605664 8.999999999999998
  endloop
endfacet
facet normal 0.0 0.0 -1.0
  outer loop
    vertex 28.611771432346224 30.5511112605664 8.999999999999998
    vertex 12.5 32.0 8.999999999999998
    vertex 28.250000000000004 30.70096189432335 8.999999999999998
  endloop
endfacet
facet normal 0.0 0.0 -1.0
  outer loop
    vertex 28.250000000000004 30.70096189432335 8.999999999999998
    vertex 12.5 32.0 8.999999999999998
    vertex 27.939339828220184 30.939339828220184 8.999999999999998
  endloop
endfacet
facet normal 0.0 0.0 -1.0
  outer loop
    vertex 27.939339828220184 30.939339828220184 8.999999999999998
    vertex 12.5 32.0 8.999999999999998
    vertex 27.70096189432335 31.250000000000004 8.999999999999998
  endloop
endfacet
facet normal 0.0 0.0 -1.0
  outer loop
    vertex 27.70096189432335 31.250000000000004 8.999999999999998
    vertex 12.5 32.0 8.999999999999998
    vertex 27.551111260566408 31.61177143234622 8.999999999999998
  endloop
endfacet
facet normal 0.0 0.0 -1.0
  outer loop
    vertex 27.551111260566408 31.61177143234622 8.999999999999998
    vertex 12.5 32.0 8.999999999999998
    vertex 27.500000000000007 32.0 8.999999999999998
  endloop
endfacet
facet normal 0.0 0.0 -1.0
  outer loop
    vertex 40.0 29.000000000000014 8.999999999999998
    vertex 28.611771432346224 30.5511112605664 8.999999999999998
    vertex 29.000000000000004 30.500000000000007 8.999999999999998
  endloop
endfacet
facet normal 0.0 0.0 -1.0
  outer loop
    vertex 40.0 29.000000000000014 8.999999999999998
    vertex 29.000000000000004 30.500000000000007 8.999999999999998
    vertex 29.388228567653787 30.551111260566408 8.999999999999998
  endloop
endfacet
facet normal 0.0 0.0 -1.0
  outer loop
    vertex 40.0 29.000000000000014 8.999999999999998
    vertex 29.388228567653787 30.551111260566408 8.999999999999998
    vertex 29.750000000000004 30.70096189432335 8.999999999999998
  endloop
endfacet
facet normal 0.0 0.0 -1.0
  outer loop
    vertex 40.0 29.000000000000014 8.999999999999998
    vertex 29.750000000000004 30.70096189432335 8.999999999999998
    vertex 30.060660171779823 30.939339828220184 8.999999999999998
  endloop
endfacet
facet normal 0.0 0.0 -1.0
  outer loop
    vertex 40.0 29.000000000000014 8.999999999999998
    vertex 30.060660171779823 30.939339828220184 8.999999999999998
    vertex 30.299038105676658 31.250000000000004 8.999999999999998
  endloop
endfacet
facet normal 0.0 0.0 -1.0
  outer loop
    vertex 40.0 29.000000000000014 8.999999999999998
    vertex 30.299038105676658 31.250000000000004 8.999999999999998
    vertex 30.448888739433606 31.611771432346224 8.999999999999998
  endloop
endfacet
facet normal 0.0 0.0 -1.0
  outer loop
    vertex 40.0 29.000000000000014 8.999999999999998
    vertex 30.448888739433606 31.611771432346224 8.999999999999998
    vertex 30.5 32.0 8.999999999999998
  endloop
endfacet
facet normal 0.0 0.0 -1.0
  outer loop
    vertex 40.0 29.000000000000014 8.999999999999998
    vertex 30.5 32.0 8.999999999999998
    vertex 33.99999999999999 35.0 8.999999999999998
  endloop
endfacet
facet normal 1.0 0.0 0.0
  outer loop
    vertex 40.0 0.9999999999999999 0.9999999999999999
    vertex 40.0 2.8 4.799999999999999
    vertex 40.0 0.9999999999999999 7.499999999999999
  endloop
endfacet
facet normal 1.0 0.0 0.0
  outer loop
    vertex 40.0 2.8 4.799999999999999
    vertex 40.0 0.9999999999999999 0.9999999999999999
    vertex 40.0 29.000000000000014 0.9999999999999996
  endloop
endfacet
facet normal 1.0 0.0 0.0
  outer loop
    vertex 40.0 2.8 4.799999999999999
    vertex 40.0 29.000000000000014 0.9999999999999996
    vertex 40.0 8.2 4.799999999999999
  endloop
endfacet
facet normal 1.0 0.0 0.0
  outer loop
    vertex 40.0 8.2 4.799999999999999
    vertex 40.0 29.000000000000014 0.9999999999999996
    vertex 40.0 8.2 6.499999999999999
  endloop
endfacet
facet normal 1.0 0.0 0.0
  outer loop
    vertex 40.0 8.2 6.499999999999999
    vertex 40.0 29.000000000000014 0.9999999999999996
    vertex 40.0 17.0 7.499999999999999
  endloop
endfacet
facet normal 1.0 0.0 0.0
  outer loop
    vertex 40.0 17.0 7.499999999999999
    vertex 40.0 29.000000000000014 0.9999999999999996
    vertex 40.0 17.0 12.0
  endloop
endfacet
facet normal 1.0 0.0 0.0
  outer loop
    vertex 40.0 17.0 12.0
    vertex 40.0 29.000000000000014 0.9999999999999996
    vertex 40.0 29.000000000000014 11.999999999999998
  endloop
endfacet
facet normal 1.0 0.0 0.0
  outer loop
    vertex 40.0 29.000000000000014 11.999999999999998
    vertex 40.0 29.000000000000014 0.9999999999999996
    vertex 40.0 29.000000000000014 8.999999999999998
  endloop
endfacet
facet normal 1.0 0.0 0.0
  outer loop
    vertex 40.0 8.2 6.499999999999999
    vertex 40.0 7.499999999999999 7.499999999999999
    vertex 40.0 7.499999999999999 6.499999999999999
  endloop
endfacet
facet normal 1.0 0.0 0.0
  outer loop
    vertex 40.0 7.499999999999999 7.499999999999999
    vertex 40.0 8.2 6.499999999999999
    vertex 40.0 17.0 7.499999999999999
  endloop
endfacet
facet normal 1.0 0.0 0.0
  outer loop
    vertex 40.0 0.9999999999999999 7.499999999999999
    vertex 40.0 2.8 6.499999999999999
    vertex 40.0 3.5 7.499999999999999
  endloop
endfacet
facet normal 1.0 0.0 0.0
  outer loop
    vertex 40.0 2.8 6.499999999999999
    vertex 40.0 0.9999999999999999 7.499999999999999
    vertex 40.0 2.8 4.799999999999999
  endloop
endfacet
facet normal 1.0 0.0 0.0
  outer loop
    vertex 40.0 3.5 7.499999999999999
    vertex 40.0 2.8 6.499999999999999
    vertex 40.0 3.5 6.499999999999999
  endloop
endfacet
facet normal 0.7071067811865462 0.7071067811865489 -4.3965314698109965e-17
  outer loop
    vertex 33.99999999999999 35.0 12.0
    vertex 40.0 29.000000000000014 8.999999999999998
    vertex 33.99999999999999 35.0 8.999999999999998
  endloop
endfacet
facet normal 0.7071067811865462 0.7071067811865489 -4.3965314698109965e-17
  outer loop
    vertex 40.0 29.000000000000014 8.999999999999998
    vertex 33.99999999999999 35.0 12.0
    vertex 40.0 29.000000000000014 11.999999999999998
  endloop
endfacet
endsolid a(mid)
