solid y-Axis base (0217)
facet normal 2.7191259328732324e-17 -1.9446550446208194e-16 -1.0
  outer loop
    vertex 39.0 -19.500000000000004 17.200000000000006
    vertex 16.0 -19.500000000000004 17.200000000000006
    vertex 39.0 -5.833965133862458e-17 17.2
  endloop
endfacet
facet normal 2.7191259328732324e-17 -1.9446550446208194e-16 -1.0
  outer loop
    vertex 40.99999999999999 8.000000000000007 17.200000000000003
    vertex 9.0 -2.6402358629806005e-15 17.2
    vertex 9.0 8.0 17.2
  endloop
endfacet
facet normal 2.7191259328732324e-17 -1.9446550446208194e-16 -1.0
  outer loop
    vertex 9.0 -2.6402358629806005e-15 17.2
    vertex 40.99999999999999 8.000000000000007 17.200000000000003
    vertex 16.0 5.365410311754496e-16 17.2
  endloop
endfacet
facet normal 2.7191259328732324e-17 -1.9446550446208194e-16 -1.0
  outer loop
    vertex 16.0 5.365410311754496e-16 17.2
    vertex 40.99999999999999 8.000000000000007 17.200000000000003
    vertex 16.0 -19.500000000000004 17.200000000000006
  endloop
endfacet
facet normal 2.7191259328732324e-17 -1.9446550446208194e-16 -1.0
  outer loop
    vertex 16.0 -19.500000000000004 17.200000000000006
    vertex 40.99999999999999 8.000000000000007 17.200000000000003
    vertex 39.0 -5.833965133862458e-17 17.2
  endloop
endfacet
facet normal 2.7191259328732324e-17 -1.9446550446208194e-16 -1.0
  outer loop
    vertex 39.0 -5.833965133862458e-17 17.2
    vertex 40.99999999999999 8.000000000000007 17.200000000000003
    vertex 41.00000000000001 1.9247255816339227e-15 17.2
  endloop
endfacet
facet normal -4.4061976289810904e-17 -8.628701131394754e-33 1.0
  outer loop
    vertex 40.99999999999999 5.000000000000009 1.5
    vertex 9.000000000000004 8.000000000000002 1.4999999999999987
    vertex 9.000000000000004 5.0 1.4999999999999987
  endloop
endfacet
facet normal -4.4061976289810904e-17 -8.628701131394754e-33 1.0
  outer loop
    vertex 9.000000000000004 8.000000000000002 1.4999999999999987
    vertex 40.99999999999999 5.000000000000009 1.5
    vertex 40.99999999999999 8.000000000000007 1.5
  endloop
endfacet
facet normal 0.0 1.0 0.0
  outer loop
    vertex 15.850000000000005 9.999999999999998 19.200000000000003
    vertex 24.25 9.999999999999998 9.0
    vertex 15.850000000000005 9.999999999999998 9.0
  endloop
endfacet
facet normal 0.0 1.0 0.0
  outer loop
    vertex 24.25 9.999999999999998 9.0
    vertex 15.850000000000005 9.999999999999998 19.200000000000003
    vertex 24.25 9.999999999999998 19.200000000000003
  endloop
endfacet
facet normal 1.0 0.0 0.0
  outer loop
    vertex 15.850000000000005 14.100000000000003 9.0
    vertex 15.850000000000005 9.999999999999998 19.200000000000003
    vertex 15.850000000000005 9.999999999999998 9.0
  endloop
endfacet
facet normal 1.0 0.0 0.0
  outer loop
    vertex 15.850000000000005 9.999999999999998 19.200000000000003
    vertex 15.850000000000005 14.100000000000003 9.0
    vertex 15.850000000000005 12.5 19.200000000000003
  endloop
endfacet
facet normal 1.0 0.0 0.0
  outer loop
    vertex 15.850000000000005 12.5 19.200000000000003
    vertex 15.850000000000005 14.100000000000003 9.0
    vertex 15.850000000000005 14.100000000000003 19.200000000000003
  endloop
endfacet
facet normal 1.0 0.0 0.0
  outer loop
    vertex 15.850000000000005 9.999999999999998 19.200000000000003
    vertex 15.850000000000005 5.499999999999999 37.00000000000001
    vertex 15.850000000000005 5.499999999999999 19.200000000000003
  endloop
endfacet
facet normal 1.0 0.0 0.0
  outer loop
    vertex 15.850000000000005 5.499999999999999 37.00000000000001
    vertex 15.850000000000005 9.999999999999998 19.200000000000003
    vertex 15.850000000000005 12.5 37.00000000000001
  endloop
endfacet
facet normal 1.0 0.0 0.0
  outer loop
    vertex 15.850000000000005 12.5 37.00000000000001
    vertex 15.850000000000005 9.999999999999998 19.200000000000003
    vertex 15.850000000000005 12.5 19.200000000000003
  endloop
endfacet
facet normal -1.0 0.0 0.0
  outer loop
    vertex 24.25 14.100000000000003 19.200000000000003
    vertex 24.25 9.999999999999998 9.0
    vertex 24.25 9.999999999999998 19.200000000000003
  endloop
endfacet
facet normal -1.0 0.0 0.0
  outer loop
    vertex 24.25 9.999999999999998 9.0
    vertex 24.25 14.100000000000003 19.200000000000003
    vertex 24.25 14.100000000000003 9.0
  endloop
endfacet
facet normal -1.0 2.0801211398087268e-16 1.204556790967264e-17
  outer loop
    vertex 9.000000000000004 15.800000000000002 19.2
    vertex 9.000000000000004 12.5 19.000000000000004
    vertex 9.000000000000004 12.5 19.200000000000003
  endloop
endfacet
facet normal -1.0 2.0801211398087268e-16 1.204556790967264e-17
  outer loop
    vertex 9.0 -2.0679282069806006e-15 19.200000000000003
    vertex 9.0 8.0 17.2
    vertex 9.0 -2.6402358629806005e-15 17.2
  endloop
endfacet
facet normal -1.0 2.0801211398087268e-16 1.204556790967264e-17
  outer loop
    vertex 9.0 8.0 17.2
    vertex 9.0 -2.0679282069806006e-15 19.200000000000003
    vertex 9.000000000000004 5.499999999999999 19.000000000000004
  endloop
endfacet
facet normal -1.0 2.0801211398087268e-16 1.204556790967264e-17
  outer loop
    vertex 9.000000000000004 5.499999999999999 19.000000000000004
    vertex 9.0 -2.0679282069806006e-15 19.200000000000003
    vertex 9.000000000000004 5.499999999999999 19.200000000000003
  endloop
endfacet
facet normal -1.0 2.0801211398087268e-16 1.204556790967264e-17
  outer loop
    vertex 9.0 8.0 17.2
    vertex 9.000000000000004 5.499999999999999 19.000000000000004
    vertex 9.000000000000004 12.5 19.000000000000004
  endloop
endfacet
facet normal -1.0 2.0801211398087268e-16 1.204556790967264e-17
  outer loop
    vertex 9.0 8.0 17.2
    vertex 9.000000000000004 12.5 19.000000000000004
    vertex 9.000000000000004 8.999999999999998 9.0
  endloop
endfacet
facet normal -1.0 2.0801211398087268e-16 1.204556790967264e-17
  outer loop
    vertex 9.0 8.0 17.2
    vertex 9.000000000000004 8.999999999999998 9.0
    vertex 9.000000000000004 8.000000000000002 1.4999999999999987
  endloop
endfacet
facet normal -1.0 2.0801211398087268e-16 1.204556790967264e-17
  outer loop
    vertex 9.000000000000004 8.999999999999998 9.0
    vertex 9.000000000000004 12.5 19.000000000000004
    vertex 9.000000000000004 15.800000000000002 8.999999999999998
  endloop
endfacet
facet normal -1.0 2.0801211398087268e-16 1.204556790967264e-17
  outer loop
    vertex 9.000000000000004 15.800000000000002 8.999999999999998
    vertex 9.000000000000004 12.5 19.000000000000004
    vertex 9.000000000000004 15.800000000000002 19.2
  endloop
endfacet
facet normal -1.0 2.0801211398087268e-16 1.204556790967264e-17
  outer loop
    vertex 9.000000000000004 5.0 2.5
    vertex 9.0 -2.075276139587071e-15 3.553876434239211e-16
    vertex 9.0 -2.559869251987415e-15 2.5
  endloop
endfacet
facet normal -1.0 2.0801211398087268e-16 1.204556790967264e-17
  outer loop
    vertex 9.0 -2.075276139587071e-15 3.553876434239211e-16
    vertex 9.000000000000004 5.0 2.5
    vertex 9.0 0.9999999999999977 3.553876434239211e-16
  endloop
endfacet
facet normal -1.0 2.0801211398087268e-16 1.204556790967264e-17
  outer loop
    vertex 9.0 0.9999999999999977 3.553876434239211e-16
    vertex 9.000000000000004 5.0 2.5
    vertex 9.0 0.9999999999999977 -1.6999999999999993
  endloop
endfacet
facet normal -1.0 2.0801211398087268e-16 1.204556790967264e-17
  outer loop
    vertex 9.0 0.9999999999999977 -1.6999999999999993
    vertex 9.000000000000004 5.0 2.5
    vertex 9.0 3.999999999999998 3.553876434239211e-16
  endloop
endfacet
facet normal -1.0 2.0801211398087268e-16 1.204556790967264e-17
  outer loop
    vertex 9.0 3.999999999999998 3.553876434239211e-16
    vertex 9.000000000000004 5.0 2.5
    vertex 9.000000000000004 5.0 1.4999999999999987
  endloop
endfacet
facet normal -1.0 2.0801211398087268e-16 1.204556790967264e-17
  outer loop
    vertex 9.0 3.999999999999998 3.553876434239211e-16
    vertex 9.000000000000004 5.0 1.4999999999999987
    vertex 9.000000000000004 8.999999999999998 -2.1534617018568042e-16
  endloop
endfacet
facet normal -1.0 2.0801211398087268e-16 1.204556790967264e-17
  outer loop
    vertex 9.000000000000004 8.999999999999998 -2.1534617018568042e-16
    vertex 9.000000000000004 5.0 1.4999999999999987
    vertex 9.000000000000004 8.000000000000002 1.4999999999999987
  endloop
endfacet
facet normal -1.0 2.0801211398087268e-16 1.204556790967264e-17
  outer loop
    vertex 9.000000000000004 8.999999999999998 -2.1534617018568042e-16
    vertex 9.000000000000004 8.000000000000002 1.4999999999999987
    vertex 9.000000000000004 8.999999999999998 9.0
  endloop
endfacet
facet normal -1.0 2.0801211398087268e-16 1.204556790967264e-17
  outer loop
    vertex 9.0 0.9999999999999977 -1.6999999999999993
    vertex 9.0 0.0999999999999977 -2.8999999999999995
    vertex 9.0 0.0999999999999977 -1.6999999999999993
  endloop
endfacet
facet normal -1.0 2.0801211398087268e-16 1.204556790967264e-17
  outer loop
    vertex 9.0 0.0999999999999977 -2.8999999999999995
    vertex 9.0 0.9999999999999977 -1.6999999999999993
    vertex 9.0 4.899999999999998 -2.8999999999999995
  endloop
endfacet
facet normal -1.0 2.0801211398087268e-16 1.204556790967264e-17
  outer loop
    vertex 9.0 4.899999999999998 -2.8999999999999995
    vertex 9.0 0.9999999999999977 -1.6999999999999993
    vertex 9.0 3.999999999999998 -1.6999999999999993
  endloop
endfacet
facet normal -1.0 2.0801211398087268e-16 1.204556790967264e-17
  outer loop
    vertex 9.0 3.999999999999998 -1.6999999999999993
    vertex 9.0 0.9999999999999977 -1.6999999999999993
    vertex 9.0 3.999999999999998 3.553876434239211e-16
  endloop
endfacet
facet normal -1.0 2.0801211398087268e-16 1.204556790967264e-17
  outer loop
    vertex 9.0 4.899999999999998 -2.8999999999999995
    vertex 9.0 3.999999999999998 -1.6999999999999993
    vertex 9.0 4.899999999999998 -1.6999999999999993
  endloop
endfacet
facet normal 0.0 -1.0 0.0
  outer loop
    vertex 36.850000000000016 -22.000000000000004 35.2
    vertex 34.750000000000014 -22.000000000000004 23.000000000000004
    vertex 36.850000000000016 -22.000000000000004 23.000000000000004
  endloop
endfacet
facet normal 0.0 -1.0 0.0
  outer loop
    vertex 34.750000000000014 -22.000000000000004 23.000000000000004
    vertex 36.850000000000016 -22.000000000000004 35.2
    vertex 34.750000000000014 -22.000000000000004 33.4
  endloop
endfacet
facet normal 0.0 -1.0 0.0
  outer loop
    vertex 34.750000000000014 -22.000000000000004 33.4
    vertex 36.850000000000016 -22.000000000000004 35.2
    vertex 22.55000000000001 -22.000000000000004 33.4
  endloop
endfacet
facet normal 0.0 -1.0 0.0
  outer loop
    vertex 22.55000000000001 -22.000000000000004 33.4
    vertex 20.550000000000015 -22.000000000000004 23.000000000000004
    vertex 22.55000000000001 -22.000000000000004 23.000000000000004
  endloop
endfacet
facet normal 0.0 -1.0 0.0
  outer loop
    vertex 20.550000000000015 -22.000000000000004 23.000000000000004
    vertex 22.55000000000001 -22.000000000000004 33.4
    vertex 20.550000000000015 -22.000000000000004 35.2
  endloop
endfacet
facet normal 0.0 -1.0 0.0
  outer loop
    vertex 20.550000000000015 -22.000000000000004 35.2
    vertex 22.55000000000001 -22.000000000000004 33.4
    vertex 36.850000000000016 -22.000000000000004 35.2
  endloop
endfacet
facet normal 0.0 -1.0 0.0
  outer loop
    vertex 39.0 -22.000000000000004 23.000000000000004
    vertex 16.0 -22.000000000000004 15.500000000000002
    vertex 39.0 -22.000000000000004 15.500000000000002
  endloop
endfacet
facet normal 0.0 -1.0 0.0
  outer loop
    vertex 16.0 -22.000000000000004 15.500000000000002
    vertex 39.0 -22.000000000000004 23.000000000000004
    vertex 16.0 -22.000000000000004 23.000000000000004
  endloop
endfacet
facet normal 0.0 -1.0 0.0
  outer loop
    vertex 16.0 -22.000000000000004 23.000000000000004
    vertex 39.0 -22.000000000000004 23.000000000000004
    vertex 36.850000000000016 -22.000000000000004 23.000000000000004
  endloop
endfacet
facet normal 0.0 -1.0 0.0
  outer loop
    vertex 16.0 -22.000000000000004 23.000000000000004
    vertex 36.850000000000016 -22.000000000000004 23.000000000000004
    vertex 34.750000000000014 -22.000000000000004 23.000000000000004
  endloop
endfacet
facet normal 0.0 -1.0 0.0
  outer loop
    vertex 16.0 -22.000000000000004 23.000000000000004
    vertex 34.750000000000014 -22.000000000000004 23.000000000000004
    vertex 22.55000000000001 -22.000000000000004 23.000000000000004
  endloop
endfacet
facet normal 0.0 -1.0 0.0
  outer loop
    vertex 16.0 -22.000000000000004 23.000000000000004
    vertex 22.55000000000001 -22.000000000000004 23.000000000000004
    vertex 20.550000000000015 -22.000000000000004 23.000000000000004
  endloop
endfacet
facet normal -7.60893443036716e-17 1.0 1.509712680230243e-32
  outer loop
    vertex 9.000000000000004 15.800000000000002 19.2
    vertex 40.99999999999999 15.800000000000008 9.0
    vertex 9.000000000000004 15.800000000000002 8.999999999999998
  endloop
endfacet
facet normal -7.60893443036716e-17 1.0 1.509712680230243e-32
  outer loop
    vertex 40.99999999999999 15.800000000000008 9.0
    vertex 9.000000000000004 15.800000000000002 19.2
    vertex 40.99999999999999 15.800000000000008 19.200000000000003
  endloop
endfacet
facet normal 0.0 0.0 -1.0
  outer loop
    vertex 41.00000000000001 1.0000000000000038 2.625236557910035e-16
    vertex 9.0 -2.075276139587071e-15 3.553876434239211e-16
    vertex 9.0 0.9999999999999977 3.553876434239211e-16
  endloop
endfacet
facet normal 0.0 0.0 -1.0
  outer loop
    vertex 9.0 -2.075276139587071e-15 3.553876434239211e-16
    vertex 41.00000000000001 1.0000000000000038 2.625236557910035e-16
    vertex 41.00000000000001 3.966130465945094e-15 2.625236557910035e-16
  endloop
endfacet
facet normal 0.0 0.0 -1.0
  outer loop
    vertex 41.00000000000001 4.900000000000004 -2.8999999999999995
    vertex 9.0 0.0999999999999977 -2.8999999999999995
    vertex 9.0 4.899999999999998 -2.8999999999999995
  endloop
endfacet
facet normal 0.0 0.0 -1.0
  outer loop
    vertex 9.0 0.0999999999999977 -2.8999999999999995
    vertex 41.00000000000001 4.900000000000004 -2.8999999999999995
    vertex 41.00000000000001 0.10000000000000356 -2.8999999999999995
  endloop
endfacet
facet normal -4.895775143312322e-18 -1.0 -0.0
  outer loop
    vertex 41.00000000000001 0.10000000000000356 -1.6999999999999993
    vertex 9.0 0.0999999999999977 -2.8999999999999995
    vertex 41.00000000000001 0.10000000000000356 -2.8999999999999995
  endloop
endfacet
facet normal -4.895775143312322e-18 -1.0 -0.0
  outer loop
    vertex 9.0 0.0999999999999977 -2.8999999999999995
    vertex 41.00000000000001 0.10000000000000356 -1.6999999999999993
    vertex 9.0 0.0999999999999977 -1.6999999999999993
  endloop
endfacet
facet normal 0.0 0.0 1.0
  outer loop
    vertex 41.00000000000001 0.10000000000000356 -1.6999999999999993
    vertex 9.0 0.9999999999999977 -1.6999999999999993
    vertex 9.0 0.0999999999999977 -1.6999999999999993
  endloop
endfacet
facet normal 0.0 0.0 1.0
  outer loop
    vertex 9.0 0.9999999999999977 -1.6999999999999993
    vertex 41.00000000000001 0.10000000000000356 -1.6999999999999993
    vertex 41.00000000000001 1.0000000000000038 -1.6999999999999993
  endloop
endfacet
facet normal -4.895775143312322e-18 -1.0 0.0
  outer loop
    vertex 41.00000000000001 1.0000000000000038 2.625236557910035e-16
    vertex 9.0 0.9999999999999977 -1.6999999999999993
    vertex 41.00000000000001 1.0000000000000038 -1.6999999999999993
  endloop
endfacet
facet normal -4.895775143312322e-18 -1.0 0.0
  outer loop
    vertex 9.0 0.9999999999999977 -1.6999999999999993
    vertex 41.00000000000001 1.0000000000000038 2.625236557910035e-16
    vertex 9.0 0.9999999999999977 3.553876434239211e-16
  endloop
endfacet
facet normal 0.0 1.0 0.0
  outer loop
    vertex 9.0 3.999999999999998 3.553876434239211e-16
    vertex 41.00000000000001 4.0000000000000036 -1.6999999999999993
    vertex 9.0 3.999999999999998 -1.6999999999999993
  endloop
endfacet
facet normal 0.0 1.0 0.0
  outer loop
    vertex 41.00000000000001 4.0000000000000036 -1.6999999999999993
    vertex 9.0 3.999999999999998 3.553876434239211e-16
    vertex 41.00000000000001 4.0000000000000036 2.625236557910035e-16
  endloop
endfacet
facet normal 0.0 1.0 0.0
  outer loop
    vertex 9.0 4.899999999999998 -1.6999999999999993
    vertex 41.00000000000001 4.900000000000004 -2.8999999999999995
    vertex 9.0 4.899999999999998 -2.8999999999999995
  endloop
endfacet
facet normal 0.0 1.0 0.0
  outer loop
    vertex 41.00000000000001 4.900000000000004 -2.8999999999999995
    vertex 9.0 4.899999999999998 -1.6999999999999993
    vertex 41.00000000000001 4.900000000000004 -1.6999999999999993
  endloop
endfacet
facet normal 0.0 0.0 1.0
  outer loop
    vertex 41.00000000000001 4.0000000000000036 -1.6999999999999993
    vertex 9.0 4.899999999999998 -1.6999999999999993
    vertex 9.0 3.999999999999998 -1.6999999999999993
  endloop
endfacet
facet normal 0.0 0.0 1.0
  outer loop
    vertex 9.0 4.899999999999998 -1.6999999999999993
    vertex 41.00000000000001 4.0000000000000036 -1.6999999999999993
    vertex 41.00000000000001 4.900000000000004 -1.6999999999999993
  endloop
endfacet
facet normal -7.894345022230839e-18 4.3580299453955016e-33 1.0
  outer loop
    vertex 41.00000000000001 1.841417716331651e-15 2.5
    vertex 9.000000000000004 5.0 2.5
    vertex 9.0 -2.559869251987415e-15 2.5
  endloop
endfacet
facet normal -7.894345022230839e-18 4.3580299453955016e-33 1.0
  outer loop
    vertex 9.000000000000004 5.0 2.5
    vertex 41.00000000000001 1.841417716331651e-15 2.5
    vertex 41.0 5.000000000000009 2.5
  endloop
endfacet
facet normal 3.551900304079246e-17 -1.0 -7.716459024270037e-16
  outer loop
    vertex 41.00000000000001 1.841417716331651e-15 2.5
    vertex 9.0 -2.075276139587071e-15 3.553876434239211e-16
    vertex 41.00000000000001 3.966130465945094e-15 2.625236557910035e-16
  endloop
endfacet
facet normal 3.551900304079246e-17 -1.0 -7.716459024270037e-16
  outer loop
    vertex 9.0 -2.075276139587071e-15 3.553876434239211e-16
    vertex 41.00000000000001 1.841417716331651e-15 2.5
    vertex 9.0 -2.559869251987415e-15 2.5
  endloop
endfacet
facet normal 1.0 9.102265866004613e-16 4.2359007786982876e-17
  outer loop
    vertex 41.00000000000001 4.900000000000004 -2.8999999999999995
    vertex 41.00000000000001 0.10000000000000356 -1.6999999999999993
    vertex 41.00000000000001 0.10000000000000356 -2.8999999999999995
  endloop
endfacet
facet normal 1.0 9.102265866004613e-16 4.2359007786982876e-17
  outer loop
    vertex 41.00000000000001 0.10000000000000356 -1.6999999999999993
    vertex 41.00000000000001 4.900000000000004 -2.8999999999999995
    vertex 41.00000000000001 1.0000000000000038 -1.6999999999999993
  endloop
endfacet
facet normal 1.0 9.102265866004613e-16 4.2359007786982876e-17
  outer loop
    vertex 41.00000000000001 1.0000000000000038 -1.6999999999999993
    vertex 41.00000000000001 4.900000000000004 -2.8999999999999995
    vertex 41.00000000000001 1.0000000000000038 2.625236557910035e-16
  endloop
endfacet
facet normal 1.0 9.102265866004613e-16 4.2359007786982876e-17
  outer loop
    vertex 41.00000000000001 1.0000000000000038 2.625236557910035e-16
    vertex 41.00000000000001 4.900000000000004 -2.8999999999999995
    vertex 41.00000000000001 4.0000000000000036 -1.6999999999999993
  endloop
endfacet
facet normal 1.0 9.102265866004613e-16 4.2359007786982876e-17
  outer loop
    vertex 41.00000000000001 4.0000000000000036 -1.6999999999999993
    vertex 41.00000000000001 4.900000000000004 -2.8999999999999995
    vertex 41.00000000000001 4.900000000000004 -1.6999999999999993
  endloop
endfacet
facet normal 1.0 9.102265866004613e-16 4.2359007786982876e-17
  outer loop
    vertex 40.99999999999999 8.999999999999998 1.2123804772542288e-16
    vertex 40.99999999999999 5.000000000000009 1.5
    vertex 41.00000000000001 4.0000000000000036 2.625236557910035e-16
  endloop
endfacet
facet normal 1.0 9.102265866004613e-16 4.2359007786982876e-17
  outer loop
    vertex 40.99999999999999 5.000000000000009 1.5
    vertex 40.99999999999999 8.999999999999998 1.2123804772542288e-16
    vertex 40.99999999999999 8.000000000000007 1.5
  endloop
endfacet
facet normal 1.0 9.102265866004613e-16 4.2359007786982876e-17
  outer loop
    vertex 40.99999999999999 8.000000000000007 17.200000000000003
    vertex 41.00000000000001 3.973478398551565e-15 19.200000000000003
    vertex 41.00000000000001 1.9247255816339227e-15 17.2
  endloop
endfacet
facet normal 1.0 9.102265866004613e-16 4.2359007786982876e-17
  outer loop
    vertex 41.00000000000001 3.973478398551565e-15 19.200000000000003
    vertex 40.99999999999999 8.000000000000007 17.200000000000003
    vertex 40.99999999999999 15.800000000000008 19.200000000000003
  endloop
endfacet
facet normal 1.0 9.102265866004613e-16 4.2359007786982876e-17
  outer loop
    vertex 40.99999999999999 15.800000000000008 19.200000000000003
    vertex 40.99999999999999 8.000000000000007 17.200000000000003
    vertex 40.99999999999999 8.999999999999998 9.0
  endloop
endfacet
facet normal 1.0 9.102265866004613e-16 4.2359007786982876e-17
  outer loop
    vertex 40.99999999999999 8.999999999999998 9.0
    vertex 40.99999999999999 8.000000000000007 17.200000000000003
    vertex 40.99999999999999 8.000000000000007 1.5
  endloop
endfacet
facet normal 1.0 9.102265866004613e-16 4.2359007786982876e-17
  outer loop
    vertex 40.99999999999999 8.999999999999998 9.0
    vertex 40.99999999999999 8.000000000000007 1.5
    vertex 40.99999999999999 8.999999999999998 1.2123804772542288e-16
  endloop
endfacet
facet normal 1.0 9.102265866004613e-16 4.2359007786982876e-17
  outer loop
    vertex 40.99999999999999 15.800000000000008 19.200000000000003
    vertex 40.99999999999999 8.999999999999998 9.0
    vertex 40.99999999999999 15.800000000000008 9.0
  endloop
endfacet
facet normal 1.0 9.102265866004613e-16 4.2359007786982876e-17
  outer loop
    vertex 41.00000000000001 3.966130465945094e-15 2.625236557910035e-16
    vertex 41.0 5.000000000000009 2.5
    vertex 41.00000000000001 1.841417716331651e-15 2.5
  endloop
endfacet
facet normal 1.0 9.102265866004613e-16 4.2359007786982876e-17
  outer loop
    vertex 41.0 5.000000000000009 2.5
    vertex 41.00000000000001 3.966130465945094e-15 2.625236557910035e-16
    vertex 41.00000000000001 1.0000000000000038 2.625236557910035e-16
  endloop
endfacet
facet normal 1.0 9.102265866004613e-16 4.2359007786982876e-17
  outer loop
    vertex 41.0 5.000000000000009 2.5
    vertex 41.00000000000001 1.0000000000000038 2.625236557910035e-16
    vertex 41.00000000000001 4.0000000000000036 2.625236557910035e-16
  endloop
endfacet
facet normal 1.0 9.102265866004613e-16 4.2359007786982876e-17
  outer loop
    vertex 41.00000000000001 4.0000000000000036 2.625236557910035e-16
    vertex 41.00000000000001 1.0000000000000038 2.625236557910035e-16
    vertex 41.00000000000001 4.0000000000000036 -1.6999999999999993
  endloop
endfacet
facet normal 1.0 9.102265866004613e-16 4.2359007786982876e-17
  outer loop
    vertex 41.0 5.000000000000009 2.5
    vertex 41.00000000000001 4.0000000000000036 2.625236557910035e-16
    vertex 40.99999999999999 5.000000000000009 1.5
  endloop
endfacet
facet normal -7.732420685218076e-17 1.0 1.5969815782532017e-15
  outer loop
    vertex 9.000000000000004 5.0 2.5
    vertex 40.99999999999999 5.000000000000009 1.5
    vertex 9.000000000000004 5.0 1.4999999999999987
  endloop
endfacet
facet normal -7.732420685218076e-17 1.0 1.5969815782532017e-15
  outer loop
    vertex 40.99999999999999 5.000000000000009 1.5
    vertex 9.000000000000004 5.0 2.5
    vertex 41.0 5.000000000000009 2.5
  endloop
endfacet
facet normal 5.94919569891764e-16 -1.0 6.610217443241812e-16
  outer loop
    vertex 41.00000000000001 3.973478398551565e-15 19.200000000000003
    vertex 39.0 -5.833965133862458e-17 17.2
    vertex 41.00000000000001 1.9247255816339227e-15 17.2
  endloop
endfacet
facet normal 5.94919569891764e-16 -1.0 6.610217443241812e-16
  outer loop
    vertex 39.0 -5.833965133862458e-17 17.2
    vertex 41.00000000000001 3.973478398551565e-15 19.200000000000003
    vertex 39.0 7.347932606470559e-18 19.200000000000003
  endloop
endfacet
facet normal -1.9019811250736256e-17 -1.0 -2.942020348638973e-17
  outer loop
    vertex 16.0 7.347932606470559e-18 19.200000000000003
    vertex 9.0 -2.6402358629806005e-15 17.2
    vertex 16.0 5.365410311754496e-16 17.2
  endloop
endfacet
facet normal -1.9019811250736256e-17 -1.0 -2.942020348638973e-17
  outer loop
    vertex 9.0 -2.6402358629806005e-15 17.2
    vertex 16.0 7.347932606470559e-18 19.200000000000003
    vertex 9.0 -2.0679282069806006e-15 19.200000000000003
  endloop
endfacet
facet normal -1.0 0.0 0.0
  outer loop
    vertex 16.0 -22.000000000000004 23.000000000000004
    vertex 16.0 -19.500000000000004 17.200000000000006
    vertex 16.0 -22.000000000000004 15.500000000000002
  endloop
endfacet
facet normal -1.0 0.0 0.0
  outer loop
    vertex 16.0 -19.500000000000004 17.200000000000006
    vertex 16.0 -22.000000000000004 23.000000000000004
    vertex 16.0 -1.9999999999999991 23.000000000000004
  endloop
endfacet
facet normal -1.0 0.0 0.0
  outer loop
    vertex 16.0 -19.500000000000004 17.200000000000006
    vertex 16.0 -1.9999999999999991 23.000000000000004
    vertex 16.0 -1.9999999999999967 19.200000000000003
  endloop
endfacet
facet normal -1.0 0.0 0.0
  outer loop
    vertex 16.0 -19.500000000000004 17.200000000000006
    vertex 16.0 -1.9999999999999967 19.200000000000003
    vertex 16.0 5.365410311754496e-16 17.2
  endloop
endfacet
facet normal -1.0 0.0 0.0
  outer loop
    vertex 16.0 5.365410311754496e-16 17.2
    vertex 16.0 -1.9999999999999967 19.200000000000003
    vertex 16.0 7.347932606470559e-18 19.200000000000003
  endloop
endfacet
facet normal -1.0 0.0 0.0
  outer loop
    vertex 16.0 -19.500000000000004 15.500000000000002
    vertex 16.0 -22.000000000000004 15.500000000000002
    vertex 16.0 -19.500000000000004 17.200000000000006
  endloop
endfacet
facet normal 1.0 0.0 0.0
  outer loop
    vertex 39.0 -19.500000000000004 15.500000000000002
    vertex 39.0 -22.000000000000004 23.000000000000004
    vertex 39.0 -22.000000000000004 15.500000000000002
  endloop
endfacet
facet normal 1.0 0.0 0.0
  outer loop
    vertex 39.0 -22.000000000000004 23.000000000000004
    vertex 39.0 -19.500000000000004 15.500000000000002
    vertex 39.0 -19.500000000000004 17.200000000000006
  endloop
endfacet
facet normal 1.0 0.0 0.0
  outer loop
    vertex 39.0 -22.000000000000004 23.000000000000004
    vertex 39.0 -19.500000000000004 17.200000000000006
    vertex 39.0 -1.9999999999999996 23.000000000000004
  endloop
endfacet
facet normal 1.0 0.0 0.0
  outer loop
    vertex 39.0 -1.9999999999999996 23.000000000000004
    vertex 39.0 -19.500000000000004 17.200000000000006
    vertex 39.0 -1.9999999999999971 19.200000000000003
  endloop
endfacet
facet normal 1.0 0.0 0.0
  outer loop
    vertex 39.0 -1.9999999999999971 19.200000000000003
    vertex 39.0 -19.500000000000004 17.200000000000006
    vertex 39.0 -5.833965133862458e-17 17.2
  endloop
endfacet
facet normal 1.0 0.0 0.0
  outer loop
    vertex 39.0 -1.9999999999999971 19.200000000000003
    vertex 39.0 -5.833965133862458e-17 17.2
    vertex 39.0 7.347932606470559e-18 19.200000000000003
  endloop
endfacet
facet normal 0.0 0.0 1.0
  outer loop
    vertex 39.0 -22.000000000000004 23.000000000000004
    vertex 36.850000000000016 -1.9999999999999996 23.000000000000004
    vertex 36.850000000000016 -22.000000000000004 23.000000000000004
  endloop
endfacet
facet normal 0.0 0.0 1.0
  outer loop
    vertex 36.850000000000016 -1.9999999999999996 23.000000000000004
    vertex 39.0 -22.000000000000004 23.000000000000004
    vertex 39.0 -1.9999999999999996 23.000000000000004
  endloop
endfacet
facet normal 1.5990252851758405e-17 1.0 1.2936286865742392e-16
  outer loop
    vertex 20.550000000000015 -1.9999999999999991 35.2
    vertex 22.550000000000015 -1.9999999999999991 23.000000000000004
    vertex 20.550000000000015 -1.9999999999999991 23.000000000000004
  endloop
endfacet
facet normal 1.5990252851758405e-17 1.0 1.2936286865742392e-16
  outer loop
    vertex 22.550000000000015 -1.9999999999999991 23.000000000000004
    vertex 20.550000000000015 -1.9999999999999991 35.2
    vertex 22.55000000000001 -2.0000000000000018 33.4
  endloop
endfacet
facet normal 1.5990252851758405e-17 1.0 1.2936286865742392e-16
  outer loop
    vertex 22.55000000000001 -2.0000000000000018 33.4
    vertex 20.550000000000015 -1.9999999999999991 35.2
    vertex 34.750000000000014 -2.0000000000000018 33.4
  endloop
endfacet
facet normal 1.5990252851758405e-17 1.0 1.2936286865742392e-16
  outer loop
    vertex 34.750000000000014 -2.0000000000000018 33.4
    vertex 36.850000000000016 -1.9999999999999996 23.000000000000004
    vertex 34.750000000000014 -1.9999999999999996 23.000000000000004
  endloop
endfacet
facet normal 1.5990252851758405e-17 1.0 1.2936286865742392e-16
  outer loop
    vertex 36.850000000000016 -1.9999999999999996 23.000000000000004
    vertex 34.750000000000014 -2.0000000000000018 33.4
    vertex 36.850000000000016 -1.9999999999999996 35.2
  endloop
endfacet
facet normal 1.5990252851758405e-17 1.0 1.2936286865742392e-16
  outer loop
    vertex 36.850000000000016 -1.9999999999999996 35.2
    vertex 34.750000000000014 -2.0000000000000018 33.4
    vertex 20.550000000000015 -1.9999999999999991 35.2
  endloop
endfacet
facet normal 1.5990252851758405e-17 1.0 1.2936286865742392e-16
  outer loop
    vertex 16.0 -1.9999999999999991 23.000000000000004
    vertex 39.0 -1.9999999999999971 19.200000000000003
    vertex 16.0 -1.9999999999999967 19.200000000000003
  endloop
endfacet
facet normal 1.5990252851758405e-17 1.0 1.2936286865742392e-16
  outer loop
    vertex 39.0 -1.9999999999999971 19.200000000000003
    vertex 16.0 -1.9999999999999991 23.000000000000004
    vertex 39.0 -1.9999999999999996 23.000000000000004
  endloop
endfacet
facet normal 1.5990252851758405e-17 1.0 1.2936286865742392e-16
  outer loop
    vertex 39.0 -1.9999999999999996 23.000000000000004
    vertex 16.0 -1.9999999999999991 23.000000000000004
    vertex 20.550000000000015 -1.9999999999999991 23.000000000000004
  endloop
endfacet
facet normal 1.5990252851758405e-17 1.0 1.2936286865742392e-16
  outer loop
    vertex 39.0 -1.9999999999999996 23.000000000000004
    vertex 20.550000000000015 -1.9999999999999991 23.000000000000004
    vertex 22.550000000000015 -1.9999999999999991 23.000000000000004
  endloop
endfacet
facet normal 1.5990252851758405e-17 1.0 1.2936286865742392e-16
  outer loop
    vertex 39.0 -1.9999999999999996 23.000000000000004
    vertex 22.550000000000015 -1.9999999999999991 23.000000000000004
    vertex 34.750000000000014 -1.9999999999999996 23.000000000000004
  endloop
endfacet
facet normal 1.5990252851758405e-17 1.0 1.2936286865742392e-16
  outer loop
    vertex 39.0 -1.9999999999999996 23.000000000000004
    vertex 34.750000000000014 -1.9999999999999996 23.000000000000004
    vertex 36.850000000000016 -1.9999999999999996 23.000000000000004
  endloop
endfacet
facet normal 0.0 0.0 1.0
  outer loop
    vertex 15.850000000000005 5.499999999999999 37.00000000000001
    vertex 9.000000000000004 12.5 37.00000000000001
    vertex 9.000000000000004 5.499999999999999 37.00000000000001
  endloop
endfacet
facet normal 0.0 0.0 1.0
  outer loop
    vertex 9.000000000000004 12.5 37.00000000000001
    vertex 15.850000000000005 5.499999999999999 37.00000000000001
    vertex 15.850000000000005 12.5 37.00000000000001
  endloop
endfacet
facet normal 0.0 1.0 0.0
  outer loop
    vertex 9.000000000000004 12.5 37.00000000000001
    vertex 15.850000000000005 12.5 19.200000000000003
    vertex 9.000000000000004 12.5 19.200000000000003
  endloop
endfacet
facet normal 0.0 1.0 0.0
  outer loop
    vertex 15.850000000000005 12.5 19.200000000000003
    vertex 9.000000000000004 12.5 37.00000000000001
    vertex 15.850000000000005 12.5 37.00000000000001
  endloop
endfacet
facet normal -1.0 0.0 0.0
  outer loop
    vertex 9.000000000000004 12.5 37.00000000000001
    vertex 9.000000000000004 5.499999999999999 19.200000000000003
    vertex 9.000000000000004 5.499999999999999 37.00000000000001
  endloop
endfacet
facet normal -1.0 0.0 0.0
  outer loop
    vertex 9.000000000000004 5.499999999999999 19.200000000000003
    vertex 9.000000000000004 12.5 37.00000000000001
    vertex 9.000000000000004 5.499999999999999 19.000000000000004
  endloop
endfacet
facet normal -1.0 0.0 0.0
  outer loop
    vertex 9.000000000000004 5.499999999999999 19.000000000000004
    vertex 9.000000000000004 12.5 37.00000000000001
    vertex 9.000000000000004 12.5 19.000000000000004
  endloop
endfacet
facet normal -1.0 0.0 0.0
  outer loop
    vertex 9.000000000000004 12.5 19.000000000000004
    vertex 9.000000000000004 12.5 37.00000000000001
    vertex 9.000000000000004 12.5 19.200000000000003
  endloop
endfacet
facet normal 0.0 -1.0 0.0
  outer loop
    vertex 15.850000000000005 5.499999999999999 37.00000000000001
    vertex 9.000000000000004 5.499999999999999 19.200000000000003
    vertex 15.850000000000005 5.499999999999999 19.200000000000003
  endloop
endfacet
facet normal 0.0 -1.0 0.0
  outer loop
    vertex 9.000000000000004 5.499999999999999 19.200000000000003
    vertex 15.850000000000005 5.499999999999999 37.00000000000001
    vertex 9.000000000000004 5.499999999999999 37.00000000000001
  endloop
endfacet
facet normal 0.0 0.0 1.0
  outer loop
    vertex 20.550000000000015 -22.000000000000004 23.000000000000004
    vertex 16.0 -1.9999999999999991 23.000000000000004
    vertex 16.0 -22.000000000000004 23.000000000000004
  endloop
endfacet
facet normal 0.0 0.0 1.0
  outer loop
    vertex 16.0 -1.9999999999999991 23.000000000000004
    vertex 20.550000000000015 -22.000000000000004 23.000000000000004
    vertex 20.550000000000015 -1.9999999999999991 23.000000000000004
  endloop
endfacet
facet normal 0.0 0.0 1.0
  outer loop
    vertex 34.750000000000014 -22.000000000000004 23.000000000000004
    vertex 22.550000000000015 -1.9999999999999991 23.000000000000004
    vertex 22.55000000000001 -22.000000000000004 23.000000000000004
  endloop
endfacet
facet normal 0.0 0.0 1.0
  outer loop
    vertex 22.550000000000015 -1.9999999999999991 23.000000000000004
    vertex 34.750000000000014 -22.000000000000004 23.000000000000004
    vertex 34.750000000000014 -1.9999999999999996 23.000000000000004
  endloop
endfacet
facet normal 0.0 0.0 1.0
  outer loop
    vertex 36.850000000000016 -22.000000000000004 35.2
    vertex 20.550000000000015 -1.9999999999999991 35.2
    vertex 20.550000000000015 -22.000000000000004 35.2
  endloop
endfacet
facet normal 0.0 0.0 1.0
  outer loop
    vertex 20.550000000000015 -1.9999999999999991 35.2
    vertex 36.850000000000016 -22.000000000000004 35.2
    vertex 36.850000000000016 -1.9999999999999996 35.2
  endloop
endfacet
facet normal -1.0 -0.0 -0.0
  outer loop
    vertex 20.550000000000015 -1.9999999999999991 35.2
    vertex 20.550000000000015 -22.000000000000004 23.000000000000004
    vertex 20.550000000000015 -22.000000000000004 35.2
  endloop
endfacet
facet normal -1.0 -0.0 -0.0
  outer loop
    vertex 20.550000000000015 -22.000000000000004 23.000000000000004
    vertex 20.550000000000015 -1.9999999999999991 35.2
    vertex 20.550000000000015 -1.9999999999999991 23.000000000000004
  endloop
endfacet
facet normal 1.0 -9.399888275159659e-17 4.5008807919831727e-17
  outer loop
    vertex 22.550000000000015 -1.9999999999999991 23.000000000000004
    vertex 22.55000000000001 -22.000000000000004 33.4
    vertex 22.55000000000001 -22.000000000000004 23.000000000000004
  endloop
endfacet
facet normal 1.0 -9.399888275159659e-17 4.5008807919831727e-17
  outer loop
    vertex 22.55000000000001 -22.000000000000004 33.4
    vertex 22.550000000000015 -1.9999999999999991 23.000000000000004
    vertex 22.55000000000001 -2.0000000000000018 33.4
  endloop
endfacet
facet normal 1.0 0.0 0.0
  outer loop
    vertex 36.850000000000016 -1.9999999999999996 23.000000000000004
    vertex 36.850000000000016 -22.000000000000004 35.2
    vertex 36.850000000000016 -22.000000000000004 23.000000000000004
  endloop
endfacet
facet normal 1.0 0.0 0.0
  outer loop
    vertex 36.850000000000016 -22.000000000000004 35.2
    vertex 36.850000000000016 -1.9999999999999996 23.000000000000004
    vertex 36.850000000000016 -1.9999999999999996 35.2
  endloop
endfacet
facet normal -1.0 0.0 0.0
  outer loop
    vertex 34.750000000000014 -2.0000000000000018 33.4
    vertex 34.750000000000014 -22.000000000000004 23.000000000000004
    vertex 34.750000000000014 -22.000000000000004 33.4
  endloop
endfacet
facet normal -1.0 0.0 0.0
  outer loop
    vertex 34.750000000000014 -22.000000000000004 23.000000000000004
    vertex 34.750000000000014 -2.0000000000000018 33.4
    vertex 34.750000000000014 -1.9999999999999996 23.000000000000004
  endloop
endfacet
facet normal -1.206847883379216e-17 3.673966303235279e-17 1.0
  outer loop
    vertex 39.0 -1.9999999999999971 19.200000000000003
    vertex 16.0 7.347932606470559e-18 19.200000000000003
    vertex 16.0 -1.9999999999999967 19.200000000000003
  endloop
endfacet
facet normal -1.206847883379216e-17 3.673966303235279e-17 1.0
  outer loop
    vertex 16.0 7.347932606470559e-18 19.200000000000003
    vertex 39.0 -1.9999999999999971 19.200000000000003
    vertex 24.25 9.999999999999998 19.200000000000003
  endloop
endfacet
facet normal -1.206847883379216e-17 3.673966303235279e-17 1.0
  outer loop
    vertex 24.25 9.999999999999998 19.200000000000003
    vertex 39.0 -1.9999999999999971 19.200000000000003
    vertex 24.25 14.100000000000003 19.200000000000003
  endloop
endfacet
facet normal -1.206847883379216e-17 3.673966303235279e-17 1.0
  outer loop
    vertex 15.850000000000005 12.5 19.200000000000003
    vertex 9.000000000000004 15.800000000000002 19.2
    vertex 9.000000000000004 12.5 19.200000000000003
  endloop
endfacet
facet normal -1.206847883379216e-17 3.673966303235279e-17 1.0
  outer loop
    vertex 9.000000000000004 15.800000000000002 19.2
    vertex 15.850000000000005 12.5 19.200000000000003
    vertex 15.850000000000005 14.100000000000003 19.200000000000003
  endloop
endfacet
facet normal -1.206847883379216e-17 3.673966303235279e-17 1.0
  outer loop
    vertex 9.000000000000004 15.800000000000002 19.2
    vertex 15.850000000000005 14.100000000000003 19.200000000000003
    vertex 40.99999999999999 15.800000000000008 19.200000000000003
  endloop
endfacet
facet normal -1.206847883379216e-17 3.673966303235279e-17 1.0
  outer loop
    vertex 40.99999999999999 15.800000000000008 19.200000000000003
    vertex 15.850000000000005 14.100000000000003 19.200000000000003
    vertex 24.25 14.100000000000003 19.200000000000003
  endloop
endfacet
facet normal -1.206847883379216e-17 3.673966303235279e-17 1.0
  outer loop
    vertex 40.99999999999999 15.800000000000008 19.200000000000003
    vertex 24.25 14.100000000000003 19.200000000000003
    vertex 39.0 7.347932606470559e-18 19.200000000000003
  endloop
endfacet
facet normal -1.206847883379216e-17 3.673966303235279e-17 1.0
  outer loop
    vertex 39.0 7.347932606470559e-18 19.200000000000003
    vertex 24.25 14.100000000000003 19.200000000000003
    vertex 39.0 -1.9999999999999971 19.200000000000003
  endloop
endfacet
facet normal -1.206847883379216e-17 3.673966303235279e-17 1.0
  outer loop
    vertex 40.99999999999999 15.800000000000008 19.200000000000003
    vertex 39.0 7.347932606470559e-18 19.200000000000003
    vertex 41.00000000000001 3.973478398551565e-15 19.200000000000003
  endloop
endfacet
facet normal -1.206847883379216e-17 3.673966303235279e-17 1.0
  outer loop
    vertex 16.0 7.347932606470559e-18 19.200000000000003
    vertex 9.000000000000004 5.499999999999999 19.200000000000003
    vertex 9.0 -2.0679282069806006e-15 19.200000000000003
  endloop
endfacet
facet normal -1.206847883379216e-17 3.673966303235279e-17 1.0
  outer loop
    vertex 9.000000000000004 5.499999999999999 19.200000000000003
    vertex 16.0 7.347932606470559e-18 19.200000000000003
    vertex 15.850000000000005 5.499999999999999 19.200000000000003
  endloop
endfacet
facet normal -1.206847883379216e-17 3.673966303235279e-17 1.0
  outer loop
    vertex 15.850000000000005 5.499999999999999 19.200000000000003
    vertex 16.0 7.347932606470559e-18 19.200000000000003
    vertex 15.850000000000005 9.999999999999998 19.200000000000003
  endloop
endfacet
facet normal -1.206847883379216e-17 3.673966303235279e-17 1.0
  outer loop
    vertex 15.850000000000005 9.999999999999998 19.200000000000003
    vertex 16.0 7.347932606470559e-18 19.200000000000003
    vertex 24.25 9.999999999999998 19.200000000000003
  endloop
endfacet
facet normal 0.0 -1.0 0.0
  outer loop
    vertex 24.25 14.100000000000003 19.200000000000003
    vertex 15.850000000000005 14.100000000000003 9.0
    vertex 24.25 14.100000000000003 9.0
  endloop
endfacet
facet normal 0.0 -1.0 0.0
  outer loop
    vertex 15.850000000000005 14.100000000000003 9.0
    vertex 24.25 14.100000000000003 19.200000000000003
    vertex 15.850000000000005 14.100000000000003 19.200000000000003
  endloop
endfacet
facet normal 0.0 0.0 -1.0
  outer loop
    vertex 39.0 -19.500000000000004 15.500000000000002
    vertex 16.0 -22.000000000000004 15.500000000000002
    vertex 16.0 -19.500000000000004 15.500000000000002
  endloop
endfacet
facet normal 0.0 0.0 -1.0
  outer loop
    vertex 16.0 -22.000000000000004 15.500000000000002
    vertex 39.0 -19.500000000000004 15.500000000000002
    vertex 39.0 -22.000000000000004 15.500000000000002
  endloop
endfacet
facet normal 0.0 1.0 0.0
  outer loop
    vertex 16.0 -19.500000000000004 17.200000000000006
    vertex 39.0 -19.500000000000004 15.500000000000002
    vertex 16.0 -19.500000000000004 15.500000000000002
  endloop
endfacet
facet normal 0.0 1.0 0.0
  outer loop
    vertex 39.0 -19.500000000000004 15.500000000000002
    vertex 16.0 -19.500000000000004 17.200000000000006
    vertex 39.0 -19.500000000000004 17.200000000000006
  endloop
endfacet
facet normal 0.0 0.0 -1.0
  outer loop
    vertex 34.750000000000014 -2.0000000000000018 33.4
    vertex 22.55000000000001 -22.000000000000004 33.4
    vertex 22.55000000000001 -2.0000000000000018 33.4
  endloop
endfacet
facet normal 0.0 0.0 -1.0
  outer loop
    vertex 22.55000000000001 -22.000000000000004 33.4
    vertex 34.750000000000014 -2.0000000000000018 33.4
    vertex 34.750000000000014 -22.000000000000004 33.4
  endloop
endfacet
facet normal 8.217845889778222e-18 -7.589846006878376e-17 -1.0
  outer loop
    vertex 9.000000000000004 8.999999999999998 -2.1534617018568042e-16
    vertex 41.00000000000001 4.0000000000000036 2.625236557910035e-16
    vertex 9.0 3.999999999999998 3.553876434239211e-16
  endloop
endfacet
facet normal 8.217845889778222e-18 -7.589846006878376e-17 -1.0
  outer loop
    vertex 41.00000000000001 4.0000000000000036 2.625236557910035e-16
    vertex 9.000000000000004 8.999999999999998 -2.1534617018568042e-16
    vertex 40.99999999999999 8.999999999999998 1.2123804772542288e-16
  endloop
endfacet
facet normal 1.7624790515924366e-16 -1.0 -8.980784976267189e-17
  outer loop
    vertex 40.99999999999999 8.000000000000007 1.5
    vertex 9.0 8.0 17.2
    vertex 9.000000000000004 8.000000000000002 1.4999999999999987
  endloop
endfacet
facet normal 1.7624790515924366e-16 -1.0 -8.980784976267189e-17
  outer loop
    vertex 9.0 8.0 17.2
    vertex 40.99999999999999 8.000000000000007 1.5
    vertex 40.99999999999999 8.000000000000007 17.200000000000003
  endloop
endfacet
facet normal 2.759059913818244e-17 -7.410623449732582e-17 -1.0
  outer loop
    vertex 9.000000000000004 15.800000000000002 8.999999999999998
    vertex 15.850000000000005 14.100000000000003 9.0
    vertex 9.000000000000004 8.999999999999998 9.0
  endloop
endfacet
facet normal 2.759059913818244e-17 -7.410623449732582e-17 -1.0
  outer loop
    vertex 15.850000000000005 14.100000000000003 9.0
    vertex 9.000000000000004 15.800000000000002 8.999999999999998
    vertex 40.99999999999999 15.800000000000008 9.0
  endloop
endfacet
facet normal 2.759059913818244e-17 -7.410623449732582e-17 -1.0
  outer loop
    vertex 15.850000000000005 14.100000000000003 9.0
    vertex 40.99999999999999 15.800000000000008 9.0
    vertex 24.25 14.100000000000003 9.0
  endloop
endfacet
facet normal 2.759059913818244e-17 -7.410623449732582e-17 -1.0
  outer loop
    vertex 24.25 14.100000000000003 9.0
    vertex 40.99999999999999 15.800000000000008 9.0
    vertex 24.25 9.999999999999998 9.0
  endloop
endfacet
facet normal 2.759059913818244e-17 -7.410623449732582e-17 -1.0
  outer loop
    vertex 9.000000000000004 8.999999999999998 9.0
    vertex 15.850000000000005 9.999999999999998 9.0
    vertex 40.99999999999999 8.999999999999998 9.0
  endloop
endfacet
facet normal 2.759059913818244e-17 -7.410623449732582e-17 -1.0
  outer loop
    vertex 15.850000000000005 9.999999999999998 9.0
    vertex 9.000000000000004 8.999999999999998 9.0
    vertex 15.850000000000005 14.100000000000003 9.0
  endloop
endfacet
facet normal 2.759059913818244e-17 -7.410623449732582e-17 -1.0
  outer loop
    vertex 40.99999999999999 8.999999999999998 9.0
    vertex 15.850000000000005 9.999999999999998 9.0
    vertex 24.25 9.999999999999998 9.0
  endloop
endfacet
facet normal 2.759059913818244e-17 -7.410623449732582e-17 -1.0
  outer loop
    vertex 40.99999999999999 8.999999999999998 9.0
    vertex 24.25 9.999999999999998 9.0
    vertex 40.99999999999999 15.800000000000008 9.0
  endloop
endfacet
facet normal 0.0 1.0 0.0
  outer loop
    vertex 9.000000000000004 8.999999999999998 9.0
    vertex 40.99999999999999 8.999999999999998 1.2123804772542288e-16
    vertex 9.000000000000004 8.999999999999998 -2.1534617018568042e-16
  endloop
endfacet
facet normal 0.0 1.0 0.0
  outer loop
    vertex 40.99999999999999 8.999999999999998 1.2123804772542288e-16
    vertex 9.000000000000004 8.999999999999998 9.0
    vertex 40.99999999999999 8.999999999999998 9.0
  endloop
endfacet
endsolid y-Axis base (0217)
